<mxfile host="65bd71144e">
    <diagram id="rnAHHKFdi0EF3q5K8Aq0" name="How the web works">
        <mxGraphModel dx="965" dy="562" grid="1" gridSize="10" guides="1" tooltips="1" connect="1" arrows="1" fold="1" page="1" pageScale="1" pageWidth="827" pageHeight="1169" background="#ffffff" math="0" shadow="0">
            <root>
                <mxCell id="0"/>
                <mxCell id="1" parent="0"/>
                <mxCell id="5" style="edgeStyle=none;html=1;fontSize=16;strokeWidth=2;fillColor=#6a00ff;strokeColor=#3700CC;" parent="1" source="2" edge="1">
                    <mxGeometry relative="1" as="geometry">
                        <mxPoint x="395" y="170" as="targetPoint"/>
                    </mxGeometry>
                </mxCell>
                <mxCell id="2" value="&lt;font style=&quot;font-size: 16px&quot;&gt;User / Client&lt;br&gt;(Browser)&lt;/font&gt;" style="rounded=1;whiteSpace=wrap;html=1;labelBackgroundColor=none;labelBorderColor=none;fillColor=#6a00ff;fontColor=#ffffff;strokeColor=#3700CC;" parent="1" vertex="1">
                    <mxGeometry x="335" y="80" width="120" height="40" as="geometry"/>
                </mxCell>
                <mxCell id="3" value="How the Web Works" style="text;html=1;strokeColor=none;fillColor=none;align=center;verticalAlign=middle;whiteSpace=wrap;rounded=0;fontSize=24;" parent="1" vertex="1">
                    <mxGeometry x="250" y="30" width="290" height="30" as="geometry"/>
                </mxCell>
                <mxCell id="8" style="edgeStyle=none;html=1;fontSize=16;strokeWidth=2;fillColor=#6a00ff;strokeColor=#3700CC;" parent="1" source="6" edge="1">
                    <mxGeometry relative="1" as="geometry">
                        <mxPoint x="398" y="270" as="targetPoint"/>
                    </mxGeometry>
                </mxCell>
                <mxCell id="6" value="http://my-page.com" style="rounded=1;whiteSpace=wrap;html=1;fontSize=16;labelBackgroundColor=none;fillColor=#6d8764;fontColor=#ffffff;strokeColor=#3A5431;" parent="1" vertex="1">
                    <mxGeometry x="273.75" y="170" width="242.5" height="40" as="geometry"/>
                </mxCell>
                <mxCell id="9" value="domain lookup" style="rounded=1;whiteSpace=wrap;html=1;fontSize=16;fontColor=#ffffff;labelBackgroundColor=none;fillColor=#647687;strokeColor=#314354;" parent="1" vertex="1">
                    <mxGeometry x="290" y="270" width="215" height="40" as="geometry"/>
                </mxCell>
                <mxCell id="11" value="Request" style="rounded=1;whiteSpace=wrap;html=1;labelBackgroundColor=none;labelBorderColor=none;fontSize=16;fontColor=#ffffff;fillColor=#6a00ff;strokeColor=#3700CC;" parent="1" vertex="1">
                    <mxGeometry x="60" y="270" width="120" height="40" as="geometry"/>
                </mxCell>
                <mxCell id="16" value="" style="edgeStyle=segmentEdgeStyle;endArrow=classic;html=1;fontSize=16;fontColor=#FFFFFF;fillColor=#6a00ff;strokeColor=#3700CC;strokeWidth=4;entryX=0.5;entryY=0;entryDx=0;entryDy=0;" parent="1" target="11" edge="1">
                    <mxGeometry width="50" height="50" relative="1" as="geometry">
                        <mxPoint x="330" y="110" as="sourcePoint"/>
                        <mxPoint x="120" y="250" as="targetPoint"/>
                    </mxGeometry>
                </mxCell>
                <mxCell id="23" value="" style="edgeStyle=none;html=1;fontSize=16;fontColor=#FFFFFF;strokeWidth=4;fillColor=#f0a30a;strokeColor=#BD7000;" parent="1" source="17" edge="1">
                    <mxGeometry relative="1" as="geometry">
                        <mxPoint x="398" y="490" as="targetPoint"/>
                    </mxGeometry>
                </mxCell>
                <mxCell id="17" value="&lt;font color=&quot;#ffffff&quot;&gt;Server&lt;br&gt;at (10.212.212.12)&lt;/font&gt;" style="whiteSpace=wrap;html=1;fontSize=16;fillColor=#f0a30a;strokeColor=#BD7000;fontColor=#000000;rounded=1;labelBackgroundColor=none;" parent="1" vertex="1">
                    <mxGeometry x="321.25" y="370" width="152.5" height="60" as="geometry"/>
                </mxCell>
                <mxCell id="22" value="&lt;font color=&quot;#ffffff&quot;&gt;&amp;lt;Your Code&amp;gt;&lt;/font&gt;" style="whiteSpace=wrap;html=1;fontSize=16;fillColor=#f0a30a;strokeColor=#BD7000;fontColor=#000000;rounded=1;labelBackgroundColor=none;" parent="1" vertex="1">
                    <mxGeometry x="337.5" y="490" width="120" height="40" as="geometry"/>
                </mxCell>
                <mxCell id="24" value="" style="edgeStyle=segmentEdgeStyle;endArrow=classic;html=1;fontSize=16;fontColor=#FFFFFF;strokeWidth=4;exitX=0.5;exitY=1;exitDx=0;exitDy=0;exitPerimeter=0;fillColor=#6a00ff;strokeColor=#3700CC;" parent="1" source="11" edge="1">
                    <mxGeometry width="50" height="50" relative="1" as="geometry">
                        <mxPoint x="120" y="320" as="sourcePoint"/>
                        <mxPoint x="320" y="400" as="targetPoint"/>
                        <Array as="points">
                            <mxPoint x="120" y="400"/>
                        </Array>
                    </mxGeometry>
                </mxCell>
                <mxCell id="25" value="" style="endArrow=classic;html=1;fontSize=16;fontColor=#FFFFFF;strokeWidth=4;fillColor=#f0a30a;strokeColor=#BD7000;" parent="1" edge="1">
                    <mxGeometry width="50" height="50" relative="1" as="geometry">
                        <mxPoint x="413" y="490" as="sourcePoint"/>
                        <mxPoint x="413" y="430" as="targetPoint"/>
                    </mxGeometry>
                </mxCell>
                <mxCell id="27" value="&lt;font color=&quot;#666666&quot;&gt;Node.js, PHP, ASP.NET, ...&lt;/font&gt;" style="whiteSpace=wrap;html=1;fontSize=16;fillColor=#fad7ac;strokeColor=#b46504;rounded=1;labelBackgroundColor=none;" parent="1" vertex="1">
                    <mxGeometry x="80" y="490" width="210" height="40" as="geometry"/>
                </mxCell>
                <mxCell id="29" value="" style="endArrow=none;html=1;fontSize=16;fontColor=#FFFFFF;strokeWidth=4;entryX=0;entryY=0.5;entryDx=0;entryDy=0;fillColor=#f0a30a;strokeColor=#BD7000;" parent="1" target="22" edge="1">
                    <mxGeometry width="50" height="50" relative="1" as="geometry">
                        <mxPoint x="290" y="509.5" as="sourcePoint"/>
                        <mxPoint x="320" y="509.5" as="targetPoint"/>
                        <Array as="points">
                            <mxPoint x="290" y="509.5"/>
                        </Array>
                    </mxGeometry>
                </mxCell>
                <mxCell id="30" value="&lt;font color=&quot;#666666&quot;&gt;Database&lt;/font&gt;" style="whiteSpace=wrap;html=1;fontSize=16;fillColor=#fad7ac;strokeColor=#b46504;rounded=1;labelBackgroundColor=none;" parent="1" vertex="1">
                    <mxGeometry x="505" y="490" width="210" height="40" as="geometry"/>
                </mxCell>
                <mxCell id="31" value="" style="endArrow=classic;html=1;fontSize=16;fontColor=#666666;strokeWidth=4;entryX=0;entryY=0.5;entryDx=0;entryDy=0;fillColor=#f0a30a;strokeColor=#BD7000;" parent="1" target="30" edge="1">
                    <mxGeometry width="50" height="50" relative="1" as="geometry">
                        <mxPoint x="457.5" y="510" as="sourcePoint"/>
                        <mxPoint x="507.5" y="460" as="targetPoint"/>
                    </mxGeometry>
                </mxCell>
                <mxCell id="32" value="" style="edgeStyle=segmentEdgeStyle;endArrow=classic;html=1;fontSize=16;fontColor=#666666;strokeWidth=4;fillColor=#f0a30a;strokeColor=#BD7000;entryX=0.56;entryY=1.05;entryDx=0;entryDy=0;entryPerimeter=0;" parent="1" target="33" edge="1">
                    <mxGeometry width="50" height="50" relative="1" as="geometry">
                        <mxPoint x="473.75" y="400" as="sourcePoint"/>
                        <mxPoint x="679" y="320" as="targetPoint"/>
                    </mxGeometry>
                </mxCell>
                <mxCell id="33" value="&lt;font color=&quot;#ffffff&quot;&gt;Response (e.g. HTML page)&lt;/font&gt;" style="whiteSpace=wrap;html=1;fontSize=16;fillColor=#f0a30a;strokeColor=#BD7000;fontColor=#000000;rounded=1;labelBackgroundColor=none;" parent="1" vertex="1">
                    <mxGeometry x="590" y="270" width="162.5" height="40" as="geometry"/>
                </mxCell>
                <mxCell id="34" value="" style="edgeStyle=segmentEdgeStyle;endArrow=classic;html=1;fontSize=16;fontColor=#FFFFFF;strokeWidth=4;exitX=0.538;exitY=0;exitDx=0;exitDy=0;exitPerimeter=0;fillColor=#f0a30a;strokeColor=#BD7000;" parent="1" source="33" edge="1">
                    <mxGeometry width="50" height="50" relative="1" as="geometry">
                        <mxPoint x="678" y="260" as="sourcePoint"/>
                        <mxPoint x="457.5" y="110" as="targetPoint"/>
                        <Array as="points">
                            <mxPoint x="678" y="110"/>
                        </Array>
                    </mxGeometry>
                </mxCell>
            </root>
        </mxGraphModel>
    </diagram>
    <diagram id="13-6TgFMp4MEmoHCSwTx" name="HTTP, HTTPS">
        <mxGraphModel dx="820" dy="478" grid="1" gridSize="10" guides="1" tooltips="1" connect="1" arrows="1" fold="1" page="1" pageScale="1" pageWidth="827" pageHeight="1169" math="0" shadow="0">
            <root>
                <mxCell id="zq16Zen5vK-xhFtDwAlY-0"/>
                <mxCell id="zq16Zen5vK-xhFtDwAlY-1" parent="zq16Zen5vK-xhFtDwAlY-0"/>
                <mxCell id="zq16Zen5vK-xhFtDwAlY-2" value="" style="shape=image;verticalLabelPosition=bottom;labelBackgroundColor=#ffffff;verticalAlign=top;aspect=fixed;imageAspect=0;image=data:image/png,iVBORw0KGgoAAAANSUhEUgAAArAAAAF2CAYAAACWHauCAAAAAXNSR0IArs4c6QAAAARnQU1BAACxjwv8YQUAAAAJcEhZcwAADsMAAA7DAcdvqGQAAPISSURBVHhe7L0FnF1Hdu67zjnNDGJmBtsyypaZxjRmezyUyfBM8CYvub+8zL15yQ3cG7iByUwGM+AZD3rMzCCDJNtiZm6xmuGcfuu/6lT3UasFtiRb7axPqt571y5YtQrWV7Vr75PoVIjD4XA4HA6Hw9FHkMweHQ6Hw+FwOByOPgEnsA6Hw+FwOByOPgUnsA6Hw+FwOByOPgUnsA6Hw+FwOByOPgUnsA6Hw+FwOByOPoVDvkIQTxLZY7cPCL6dWb9ETqhDw/VEbjiHw+FwOBwOh+PE0EVg+ZPBQ11YloWqZolpJ74JsaAJQllESSTwJ0w2XG9IJDWehtOwkfTG0OHK4XA4HA6Hw+E4fhyRwBp9haTyTwloZ1unZNLtkkpCRts1RJseO7KxjkJiEyl1+SKpIr3I08RTGjJLZYniLNbhcDgcDofD8S5wCIGNFDRyyoR6dKY7Ze/OvbJh8VrZvXW7VFeXSP/+xVJT2SHJziYlu5DZdDZOTKEbmUSe5JfXSmHtUJHiWuWwJZqwklpAcIvoLNbhcDgcDofDcXzodQ9s5JXsFti2dps89stH5PXnXpN92+ukurJIxgwplMvPHiiDqzJSKM2aSJuGDlsLeiKtBDZZViulo6dK+ZTZIuWDA4klhy4C6++SORwOh8PhcDiOD4cQWJD7klZ7c7s8fN8D8pNv3yv7tu2XpHLU/ERaKpJ75LpzquWKWcOkItUoKWmVTIaV2G6E/bEiHYmktCeLpLViqNSc8xEpgcQW1EinEtvudVcnsA6Hw+FwOByO40OPFVhOuwlsS2OrPP/Ys7JkwWJhkTWRUd90h5Sld8uEsl0ysaZFqmS/FEhL2C+bZaSZHE6cUc9MMiUH86slMeZ8GXTZbSLlw5XAFuUQ2O4zh8PhcDgcDofjaOiVwAY6qcQz3Sn1+w9Ka1OrXdsugUynpDoOSP6OBdL81mNS2rxVCoX7xA0xQ5IhWf5m9F9TQbW0DpkuQ678uEjteJEk2wiAk1eHw+FwOBwOx/HjkGf3rLryL5LKZCoplTVVMmDoQBkwbIAMGK5uxECpVVc6sEYSeUklqIGsQlo7O9PmAtMN/gl1ZJLszEgyrf7pjiy3DQTX4XA4HA6Hw+F4N+hl82kksNmVUQ6EsqOSzpSS0KSS1ERGMgklrRYskNUjwUix3uarBl1Bjxzc4XA4HA6Hw+E4It7721MQVyOvDofD4XA4HA7H+4f3TmAdDofD4XA4HI4PAE5gHQ6Hw+FwOBx9Ck5gHQ6Hw+FwOBx9Cu8rgfUtsw6Hw+FwOByOE8VJIrC5b3Qd/pmB8KXZ8IGuUwmysU/Vdjk+8sW/XMRQHKNzOBwOh8PhcPQVnIIV2O4vyQbCmpC0Mtjw07KRLHaTxsMoZPTo8jwsRK/IjRZc/MvxcH9j1dkfXOgO5XA4HA6Hw+E43XGSCCz0j1VNThPKC/mBA37CINJD1kLDd2P5fqyFz1mOtdMQ+FDYdaDC8XbPIJGEJjT98KMJ0cWYPV32zA7E4ASQjsoWlosdDofD4XA4HKcpTgqBNeqnZDCdyJP2ZJG0JUvUFet5nmS6mKSGgrzaMZBE/hp9DJdHxFFv201NRYmzJR2uslnipwL0mgD+0NkuSpuDYwjkcDgcDofD4fjAcFIIrChRTStx7SgdKIlBkyUxdLqkhkyVzrJB0iGFRiSTXSubrNAmJGMLtlna2MU4D3es3EZCGb0Duv0NbFHAadpdjiBpDcP/Ti4ymm+HBbeoXY7wetQgdpld1XU4HA6Hw+FwnH44YQLLI/gOUQJbWC3548+VogtvkeKL7pCi82+W4gnnSnt+pWQSednV0EAs7Zx/EMY2pajNaelsV8KY1gSNZ3Ya4cRlQ4adB9zHHcIvs+SzXV3gqMFZWEisOkX4C8dNBX/CRwenxa9LtpPD6x0Oh8PhcDgcJx+JzrDceJzIMsf2/ZLe+Ibsevo+KT64VTqT+ZIcPEXKJ1wiSza2yvqtu2XE4CqZMqlKDs57WPJ2rZBEfoG0DpwqA678hEjtFGnY3y6L31oiyxYulQP790t1TbWccc6ZMnnGZCmqLrbcMkpkk0ooM60ZWb9qg7w1b4HkFeTJWefPkhHjhksiD9JJQBWpoVWeeuQpaapvkoSS11QyT6qqq2Xk2JEybPwwKSgrtDTTLW0y98W5Urd5r5JiiKomADvOFxk2eoTMPHumFJYVaAIW3OFwOBwOh8NxmuHdE1iCdwQCu/Ppn0lh/XaR4mopnHiJbKyvke98/zFZvnqLjBhaLX/9578t/To2yq63H5G8/KR0DJwsAy+9R3a3DZDf/OxReeyhx+TAnv2SSWeUjIpUD6iRL//hV+XSay6V/DJllEimZHTPtj3y02/9VB66/yFJKYH92Kfvlls/dauU15aHpdV2kaY9jfKlT35RdmzeJun2tCQSSU0zJYOHDZEbb71Rrr71aqnsXynNu+rlf/7p/5S35i5SosvrXhnJJDOSX5wnV95wtXzxD78kFf3KTtbmCofD4XA4HA7HScZ7pmmdShzTyaS0J/MlVTFYSqpGyfJlm2XDuu2SbknI+jV18sKLSyU9ZJqkKodKW6pYuWhK0s1tsuS5ufLgfQ9Ia32bXHjhhfK5L3xGLrpktoybONZWTPOKlM1mkenIyIYVG2XeK/OkoykjzftaZN5L82Tn+h0ibRoAkqulaFfSmm5ROtqWkOkzZ8q1N14vEyZPlu1b6uTnP/iFzH9xvrQ3tNlWhc5WDdfSJmNGjpRbbrlZbr3lFrn55pvlDI2Xn695Q4odDofD4XA4HKcl3iWBhdl1P7Zn60C6oFJS/UbL+v2dsuCd1VJUUC4XnT9HaqsHyjMvzJfm5kKpGjlNGtMFGiUl+/fsl/lvLJCW5la59LLL5Hf/9A/kE7/7Gfkff/sX8hd/8xcyfsq4sDUAaD4H9xyU1195XXZt2yVnTJkp0yZOk42rN8jS+Yul5WBz2L+qpbB15HSnFBeVyJyL58gf/9kfy59+7U/kIiXI+3cdkHfmvSMH9h2UglShdHZ0SrqjXYYOHiSzZ18g551/npx7zjkydfoUKS4tCuVzOBwOh8PhcJyWeA8rsFkSy5cH+MJA2WAprhola1bskLVrt8mo0WPl6quvluHDR8q27fvlzVcXS974syWvaqikE/nS3NIqO3bukKLiIhk7YYzUDqwRTUbya4qkZEB5N3nV1DPtGdm8epO88dJrUlVeKXMuukjOP/c82xf75qtvyJ5dezScss20ipNMSDKf4mRUND0Wi/Qf2k9Gjh4leXl5sn/vAWlrblPimraXw/LV7403Xpf/8bWvyV/+f38p/+fv/4+89NLLdt9XYB0Oh8PhcDhOX7wHAqtIJKVTyShfGEgNGC91HSWyYB4vYzVKe3uHrFm7Wtra2tRl5LEnX5KWjlKpGD5F2lOlkkwVSn5hkWQyaak/eFCam5vDS1jN7dJ0sEnSbR3KSVneTdj1Gy++Ids2bDeeum37dtmxY4cKnZTli5bLmkUrNR7hNYm0El720qpsvIHV2S7SuL9JDu47oIS1U0pKSmz/rKSUneISCRk8aLDMvvBCuWD2BXLOOeco6R6u8r03lTgcDofD4XA43h8cN1sLT9X1r/1agEZTMpqoGCqlA8fL2nV1snTZGiOPa9evkd88dL9s3rZJeWJSVq7eKPPnLpaKUWdIsnyQlFb2k7ETx0s63SHzX39TXn36FVn2xjJ59YlX5dGfPyo7t+xSwpmQzo6EbF2zWV59bq4kM0mpb2yUZ154Rl55/RXp6OiQhv318uoLc6V+z0GTjI9f8Ze9sJvWbpa3X3pHnn3keXlrwVtSWFxg+2vLKkolk8hIB/+UQA8ZNlQuu/wKueKKK+Si2RdK/9p+0tbKxlqHw+FwOBwOx+mK1F8osufHQEZdoLH2hD2RkFRBhbRJmTzxxMuydMV6mXLGDJlz5Rw9TpXJ06cYSdyxa6ccbG2WCy+/XEr69ZfSmoGSV1IpWzZvlTWrVsuSJUvlrflvy0svvCiLFi6SYSOGKcEdayuxD/3qYXn9pdelpn+tXHzlxXLm+WfJ1DOnyoD+/WT37l2yvW67TJ02VQaNHCwdTR3yyK8fln17D8jW7dtkwYIF8tZbC6Sto1XOufAcueqjV8qAEQOlvbVdnnniGdm5rU72Hzgoi5YukTfnvSHzF8yTgw37ZeLUiUqyy7KFdDgcDofD4XCcbjhOAgtx7bR/gJXWZH6xFFf2lwP17bJ2w1YZNGyYXHfr9XLNzdfKzPNnyoxzZ0p1bY2kk51SWlUhk2fOkNrRoyVZXCyV/QbIkMGDpaioyL5mAFnsp6R01jmz5Iyzz5T+g/pLR3ObvPPWO1JZVSUXXHyB3P7p2+XcS8+R6WdPl7HjRksilZCisiIZNnq4DB813LYJbN+6Q/orSR4weKDUDKiVMRNHy8VXXCRX3XiljJg0SlKF/IiByI5tO6WqsloGDRkslbWVUl5VLtXVlTJq7CiZNH2yFJeXWDmdxDocDofD4XCcfngX34HNdK2/Gq8jmv5vbWyVPbv2KqlNSZWSwOKy4i7i19LQInt279FgGalRMltSATEkXlIy7Wk5uOeA7Nb7ra2tUlhYJP0H9JeKmgp7kYv7O7btkEy6U0qKS6Wmf7X92ADobMvI/t37pampUUrKS6WqX7V0arg6JabtbR3hBxCUZBeVFEpFdbkUlhQpVdeIyNUhFq5VCTJF4Je3OjNatkRGSktK7Fu0qeLuz3gZNF4oe4DzWofj6Mhon2pqapKWlhYdGxJSrBNXJqycA45sBaqvr5d0Oi3JZNL2qefn59u+eMaE3KGJ9HLjRsR4hCUe4fDjOjqu8QcxbkFBwSHx2LNPnu3t7RaeFz+RuayszGQiHMjN+1iwrU4NDXYkHmkVFhYekhb5HTx40PzIp7S0tEsm7uWWG7lArh/AH1kJTzly78fz6HJBXshDHOqJ+iJ81AHyoCMc+ugZHyDn/v37zRGPOJSzurra4kWZHQ6H42TjXf6QwRFwJHbXM+Uj3TtS/FxYGP0T79vSrRoo9uQqITbwE1wE4J7dzw7k5iwEUboNiIW104B4TnK54TmP14qcU4fD0Qsgpi+//LLMnz/fSMx5550ns2fP7iJoOAjTvffeK7t27ZLy8nK56KKLZPz48TJ37lx55513jExF9CRtgGvSu+CCC+z6tddeMzKYSqW6wsa84jlAnpkzZ8qcOXNk8+bN8uqrr5oMkcQSF4KLTEOHDpVp06bJmDFjLK9c9JSnJ7Zu3SrPPvusbNq0ydK77rrrZPLkyZY/5UGedevWycMPPyyNjY2W15VXXmlhn3zySdmyZUtXuYmDI06uXsDAgQPl0ksvlZUrV8qSJUtsQhDLjYty5h4hruz9R57XX3/dtlwdOBBeeEUPEFH0WFVVJWPHjpXp06fLsGHDzB8Qbtu2bfLCCy9YvsQlX4huRUWFhaVeJk6caOVxOByOk42TQ2BPBMfI3W7rny5TAWEFRlL5z5+wKswqKtDh3u5JMhsxO3B3tKYllZ8Ml9n4XTC/cGoIUQIsrXB6iL/D4egVe/bskfvuu08ef/xxI1433XST3H777bYyByBhrNr96Z/+qRE1/O+55x45//zz5Wc/+5k88cQTvZJWEIcs7hHvlltusev7779f9u3bZ/Ei2SMMDnIFOIeEXXXVVXL33XfLW2+91UWiiRPDcU5YVhEjsbzkkkuM1EZw/2hYvny5fO9735Nly5bZCukf/MEfGKkjHul3dHQYcfyXf/kXkxuy97nPfc7y/MY3viErVqzo0kFuXrH8kchCMD/96U/LSy+9JK+88koXCe8NMS5knLz4IZkf/vCH8tRTT9kKKvFinoRFV5SZicWNN94oM2bMMD/IOWVbunSpkVcQ04b4VlZWWn2iZ8rucDgcJxun/fMdPo11YPcB2b5+u+zbtkfa61vthwgglW0NrbJn4x6p27BTWg60SCKjxdExvWFvg+zcvFP27zooHW0ZDa8Gdft+2a7hDu6ol04+NKB+rQfbZNu67bJ5zRZpb2y3F8F2b94tm1dskc3LNsvWVVukbtNO6dB77J3NeY/N4XAcAZHIcMRBiHL9QCSI3IuPyrmHP4+g+/fvL7W1tdKvXz+75j7kEnIEaeU+x5qaGtuaAEkiLG7AgAG2ckhYSCLpQqgIy2oljjTx534MQ/hRo0bJhAkTZMiQIXbNFoDVq1fbimhc3UTuIxHEXJAmZcPFPEAsO4gyUD4cYMUylpHycCQ8eROG+1E3OMKyogrRpIyUHR2wEgogtOTJNWlRfuIThzKCWAfoZdKkSUaKCYvf3r17jWg/+uijRlwJ+/zzz9vqOive6J+VXFa0WWmH8JM+MrAi63A4HKcCp/cKrN47uPug3H/fb+S5x56RYcOHyh0fu0POmH2mktWEPP7rx+XRBx9XI1Mvt9x1i3z0Ex+V5qZmeeqBp+SB3zxgL4Xd85l7pKSiTO77wS/khSdekAnjxsqXvvIFqR1RK+uXrpe//v/+RgpLCuVzX/msDBg0UH7+n7+Qd15/W1KdOrDnZyRVlJLRY0bLDTffIDMvPEOE8Th3i4HD4TgEDCmQHlZgH3nkESNP/FTzHXfcYSQqEjhWYP/oj/5Itm/fbv6s2H3kIx8xUgRxhDwRjlXFn//850acIEa/8zu/Y+QIQgcJIy55siUhEkyIFquYO3futBXNW2+91QhWBGQPssYj/h//+Me2Agqx+5M/+RMjhTzSX7Roka3q1tXVGUFmpZd0cldhjwZWUL/zne8Y8UWG3//937dtEpA6yoabN2+e/PM//7PpC+L4+c9/3sjg7t27bV9qxK9+9St55plnjLzyOJ/VY8pNWUmPFdW4BQIdAB7tf/3rXzc/SCVxxo0b1xUHoov+/uM//kMee+wxizNr1iz54he/aKusrKK/+OKLtk2AVVbI8e/93u+ZfP/7f/9v2+ZBWpSJFWAmCZBxdEn9sY2AOIRxOByOk43TewVWCWy6PS37d+yVzSs3yevPvSG/+vGvZePijbLw1UXy63sfkOVvrZRVi1fLvrq9FoXwu7fvlvUr1smebbuls0ONYCYpDXsabbX1+Uefk1//6FeSrk9Ly/5mqdu4U/Zu2S1t9a2SaU5L/a6DsmPDDjlQd0Ca9f62DdvkuUeek7/72t/JinnLAuH+YCm/w9FnEMkLBBPCFslrJHDxnJVA7nGE9IwYMcJWQ0eOHGnX3CMNiBXEiD2pkDHCxZVYSBrX/CAJ5zEvHIQXf9LExRVIEFc2IXX4Dxo0yNKH8PLInHuQQEglLy0dL2KZQSwnfgDZQLzmfgRyIANlj45VzgjINOXEnyOrxZBHVkzRDf4cKQv6xBGHcKNHj7byo4tIgJEhykM+EPjBgwcbUWXfMrIQLr6whS4g+CCWD4JOetQDuoNkO3l1OBynEqc3gWXsUwkZ45NpNW7tKVk4d6H8+Os/kh/8y/dl29ptIu066OYXSZIVU8LpQFyUKpQ8Ja2dbWnpbFejqQkRPy+dMpL68K8flOcfflZSGTWa7WrgcNntAZnWDskvSMlt99wi//Ltf5G//t//SyZOnCTbN+2UX977a+msDwO2w+E4PkByIH9r1qyxVUn2hLI/dO3atUaGIFCs3EEkI+mMxC4iEiH8IxGMYSM4jw7SFs8B4XPvR/+IntcRvYU9XuSWgfKxKrx48WIre9QBL3jFFVOQG4fyRZcL5IllP5LjPnrCxe0L+IMYNzev3hDTIVwk+aTFai9kOeqYrQTf/OY35Y033rBVW1bKY3yHw+E4VfjgCeyxxji2aDH4diaksqxCCvML5KUXXpIli5dIVVWFlJQWSUdbuw2mcWW0M6Mn9imthB4458l/UvITKSkpLlGj2S7f//b3ZfFbiyXRQRas/miIlA7YDOwaobyyTGqG1MiZc2bJeRecL3mpPFm44B3Zu3tfyMThcBwXIEB8WeCv//qv7aUt3P/7//6/8pd/+Zf26DwSKevDWUSSFdGTDHEdieyREONAunCkCYiTGy8SMcIgDz9XzdcB+IoCj8kBj+5ZmXy3LyTlysA2iP/1v/6Xlf3P/uzP5M///M/lJz/5iX2x4ViI6US5j1ZuQHhWcnGxfBExbq5fBNsWeKGNbR2QbF4M4xzdseUCHbDaes0113St8LJdgPr9+7//e/mHf/gH244AWafMDofDcapweqzAMo4eyWUXPFMFeTLz7Jn2i1wV/Spk4LCBcuudN8mwkQMlr4DHgDpYEl5hB/2TSaihUpdQl+KoiY2dMEbOOe8c2bd7v/zm57+Wdn46Vgd0vh2LS2czTHdk9Ez9OjOSylM1JTslrxBDcHTD4XA4uhFJEit4EBpIZ1zNyyWShMPv3SCmHdPp6XIRyXFPfxDJMo/Hv/Wtb8nf/M3fGNH8wQ9+YGSOuGxJ4OWud0tgI2L52aeK6/liV29ynQgoD2lGEhl1dTQQnhfW/umf/kn+6q/+Sv7u7/7OvgbBdgG2FvA5MbYsoI9zzjlHfvu3f1umTp1qWwXwg4jzstf3v/99+fa3vy0LFy7sWmHPdQ6Hw3EycHoQ2COBsU4dB8goPzLwkVs+Ih+5/Tr52OfukdmXz5b84jy7Z5/MysLCQz7xz47bHZl2aUu3Snl1udz1ybtl0uSJsqNuh7S26wCr4cxpGpmEGlg1pI31jfaDByvfXi5vzV8gHek2mTpjqpRXhTd7HQ7H8QHyxJ5LPtl02WWXyeWXXy4XX3yx7a+EEEZScySSdTzk63hxpLSQAWK5atUq2+bAy1+QP1Yd+bzV9ddfb2QtEuHjRSwbK6EQQD7FxTdb0QOOvaLsxT1WGeP9EyGApHGsfHiBDh2wAs22D8KzXeDcc8+179iylxgZ0APl+PKXvyyf+MQn7PNnkFuILntleTmNF/hYzQYx72Pl73A4HMeL05vAGhJKLhOSTmYkk98pQ8YPk7s//zG56parpbxfpdiXs5R4djIuquOYVjIa/KCx/NO4Gj+dbJeORIeMnjpaPvGFT8rw8cM1zbSkU+kQlnjqWtSQvfTSK/L9f/2efP0f/1WWLlkkw0YOlSuvvVLyywosH4fDcWxEsnPWWWfJb/3Wbxnh+cpXviJf+tKX7JqXj1gBjauyHwTiajDka8qUKfYmPiuMEDS+nMBKI2QzvvT0XsDLZ/xwAG/4f/WrXzUd8B1Wvi/7Xld1TwUoI0T7zDPPtG/WIt9dd91lJBWyTTkA+kIXvDAGuadcfIkAvbFHFp3yFQR+KIK6dTgcjpON05vAqq1IpEQKyvKlpKZY8kpTksnLSFlNmfopkSxMSlFViZTXlktCz600Gj5VSvgyKSwvsp+l5f2uiv7lMmj0YKkaXC2J4oTMuuxsue3Tt8nwKSNlwOiBUlBeIHmFeVI9pFYGjxkqDW2Nsmr9amloaZSzLjhLPv7ZT8isOWdrnkEuh8NxfIgkFmLD/kkc5xA3yGskQ3GP6qkAeeQecxH9+DwWZA0yBsGGYN52221G3JA5hmNlllVGXHxEfixQNlZaKTMu6iH36wLvB462Coo/XymAsDPRwH32s5+Va6+91r5cEMkrgJSyX5ZyUbfsjeUbsJB0VmxJC/2wP9YJrMPhOBU4vQmsoqi0SGZfer588gufkPMuPk+KipVBZu1FYVmhXHfLdfJbX9SZ/+xZRl7ziwpk5nlnyKe+8Fty2TVXSGlFmaQKU3L+ZRfIF/7wi3LDHTdIkRJbKe6US2+8TL74J1+Wj33+Hhk5foRUDaiWa2+5Vr70R1+WL/43NWJ/qIP4//NV+eIff0WuvPUqKajSvJ28OhzHDchdJHjHQ/Q+KCAbj/lZUYSs8RkpPs8FaYuEjyMri7zcxM+/8o1YvpPKftbjKVtP4gj5O1WkPeo910X/owFSjQ5wfBeXFdlcHUTwC1z8sAH7XDds2GA/K8svquHi92shtpD2UzkxcTgc/3Vxeo8sOmYWKGGdee4ZcsvHbpUzlJgWlCiJRGpWZksK5JIrL5Gb77pZJs+YpJ6dkl+QJ1NmTpJb775FzrvoPCktL5VUfkrGTh4nF152oUw7a5rkFedp/ISU1pQqKT7fiHHtoFoluyV6f6pccs1Fcsl1c2TOtXOM+I6aMlryyvIDeT19bbDD4XgPOBapywUEls9fPfjgg/bjAnzkHwLbk+AdCccb7nQEekJ+Vlb5UQXKzw814Hhp67vf/a59gYAvORCOb9HyDVmIrMPhcJxsnP5T42RCkkpA84vzJVUI8cSPl7r0qOepojzJL1FymWT/XKcamLQS1oQUFOVLnpLZhMY3+6QDakL9LT5xEzoYazrJPL1AC7ku1Smd+RqJ7QKaZUcyPAIzQ/cujJ3D4Tg1+CCJICuM/OpX/PzVfzWCxotevJzFr3Oxz5XvwPLSFl8gYAWWLQO80MV2Ar7e0JdJu8PhOH2R+gtF9vy0BQOgDYJGPIMfx65xkRMlqhwPCxtPIabRvwshQBhgww0LQhqWnvLVeJ11FsDhcBwR9BNWKtkfyiNpfleffaQ8lo77KGMYyBCrdOPHj7eXhzjvCcgij6GJz6eszjjjDNtHmtsvezr2qRKP9PjFLuLwSDw3DBNSVhMhoHwlgZ9y5Ze3jrYvlS8VvPnmm/a5KVZeeTv/7LPP7pXEch/H/lB0MHPmTDvPfaTOfWRltZL8+fUrXmxDvlxAlikzv3JFGPSQuye1N5AudUAcvqQQ0+4J9qmyJxk98aUF0mY7RU9EmciXrxGw15Wfo2XvMFsN2HJBOXn5iy8W8DLcibz45nA4HEdDQgdxX1J0OBwnDQwpkRxCoCAwkEJcJI7xyCoeK3YQQAha/HnXXJAGaUVAio61rxJyzPdL4wtEEGl+jKAnSBtHeNLks1lHS5tPS/GrU6+//rqV4Y/+6I/sawW9kbT4shdH7vcmA4QYoo0uII3ooDfySFniVgXuk1ZveeaC8DHtqN+eacd6wlFuyClpcx7rKRfRj7RjveTqL8YnL/I8lowOh8PxXuEE1uFwnBLEoQUSczQydDogV9ajgW/EQmDZB8vK5te+9jV74Yt477UsPfM+GXp5P9KI96P84ETzdDgcjuPF0ZcxHA6H410CQhPJTSQ0vRGbSH4iAcolQiD3Op6z0gd6hu0NxwrT8/7xkC9WGdluwCN/fpSAx+b49RY3pp+bT65fdCA3/vHIcSwcKY1cWXLRUx5wtDKBeE646BwOh+P9gq/AOhwOx3GC4ZJH5mx9YLvB8TzKdzgcDsfJhxNYh8PheBdgyHTS6nA4HB8sfAuBw+FwvAtAXn3e73A4HB8snMA6HA7Hu4SvwDocDscHCyewDofD4XA4HI4+BSewDofD4XA4HI4+BSewDofD4XA4HI4+BSewDofD4XA4HI4+BSewDofD4XA4HI4+BSewDofD4XA4HI4+BSewDofD4XA4HI4+BSewDofD4XA4HI4+BSewDofD4XA4HI4+BSewDofD4XA4HI4+BSewDofD4XA4HI4+BSewDofD4XA4HI4+BSewDofD4XA4HI4+BSewDofD4XA4HI4+BSewDofD4XA4HI4+BSewDofD4XA4HI4+BSewDofD4XA4HI4+BSewDofD4XA4HI4+BSewDofD4XA4HI4+BSewDofD4XA4HI4+BSewDofD4XA4HI4+BSewDofD4XA4HI4+BSewDofD4XA4HI4+BSewDofD4XA4HI4+BSewDofD4XA4HI4+BSewDofD4XA4HI4+BSewDofD4XA4HI4+BSewDofD4XA4HI4+BSewDofD4XA4HI4+BSewDofD4XA4HI4+BSewDofD4XA4HI4+BSewDofD4XA4HI4+BSewDofD4XA4HI4+BSewDofD4XA4HI4+BSewDofD4XA4HI4+BSewDofD4XA4HI4+BSewDofD4XA4HI4+BSewDofD4XA4HI4+BSewDofD4XA4HI4+BSewDofD4XA4HI4+BSewDofD4XA4HI4+BSewDofD4XA4HI4+BSewDofD4XA4HI4+BSewDofD4XA4HI4+BSewDofD4XA4HI4+BSewDofD4XA4HI4+BSewDofD4XA4HI4+BSewDofD4XA4HI4+BSewDofD4XA4HI4+BSewDofD4XA4HI4+BSewDofD4XA4HI4+hUSnInvucHzI0LNpJ7LHDyMoa255KevRytszbF/BkYarD3Pdnk44tN30rI1Da6GvtjGHw9EX4CuwjtMamMBuF8+OH8Tpjvfu4vYFnFipQszTXSvdZYxnvbh4mkXOHcdJQ+9azfXtdt3/Mtmjw+FwnEz4CqyjTyC3kR7vWk6I05ldJyLWh3kVqLdufKzyxjjd4Q73+WCBPIfWXm/lBIeXIRenS3n6LmJNgO7aAIGc9uxlmZy/+IV/DofDcbLgBNbRZ5BrPo+KaEkNxx3LkcUh6vsAkTswHa88PWvba/9k4kjaDP4Z9edOuBv8+Itz+upwOE42nMA6+gSsmSaOwwiaxSSsHjW8eQULavgwGtHYhRPZ8kYE3yMjN3S3imKsD0pTQRL+Zqs8XMVK5NAbEJfb2TjBo+8jd3iO9dtzyO5Z76ccZJ8jQ2fMXw/IlsyRx4Kqw+d9ltLhcHzI4QTW0QeQNYOdmaw1TKk7ijnMECgdwrPNO5EMRlbdh8+IZvWSoLycU/YcHLHA3EAnKU2BrfAhYPdrOR+UpnLyt/rWciX0mNGjyXQEuRLZeBySlIc2Esv1QZXlvYNhuTdiGv17DtunnsRqfmRJnST1JE19ZGXI9i3Td5dY4ZoNPNkrxxGQW6fv+2TE4ejDcALrOE2R2yzVWGY61LUF71SxGtH8cKs3ZCA8LRpNwyfyNHyBHpXQJNV9qBCJnZYz3aTnqiMIX+zSZgx7MYjmrXpJFKpOCqVTHWSjKyTRP1A7qgIYeW3P1mOz+lFWdUdCLKvVs7aNPMqk9S55mlpO2foIcslMRsvd3t4uW7dulb1790phYaEMHz5cqqqq7P77gq76aA2O+qCtUVdGXFVWXEp1T9tK0r5U95z3Qf2/Xzhw4IBs375diouLZdCgQVa3Dofj+OAE1nGaItssaZ6dbdK+Z7vsXrdUSktKpHz8GZIoqtSb3SuHhyDTLuldG2XvhpWSKiqTqvFTJVms4RNHIb19EpC6Nmndu032q24SLQclpWXXTq1a6ZRUlmB0KsHIqK4y2RUxXDq/REoHjZLy4eOlM79MydL7Q+7jcHP0laYsOWo5IHvWL5c2LV+BtoHOdChbUslUghLpOWXKKEmlfJ3JpHQoYcqrqJWayWdq3VdoWgVa3r5LoNBXa2ur/PznP5ennnpKGhoapLy8XG655Ra58cYbpaAAkv4+oFMnR20HpXHjCmneuVES7Y2ha2o9mn61HvJ04lBYUipF/fpLonawJEqUYOtks1MnEgnrq6cWuaS/r2DevHnyox/9SEaMGCGf+tSnZODAgdk7DofjWHAC6zi9wQpjplGaNi6TtXMfl+qqShl86a2SKh+iN8PqWi4gNqzYta5bIOtfe1aKagbJsNnXSF6Vhk8WZUN9WEBZ26R+80rZuOBFSR/cJfmJDiN4KSUchUo4Mi1NkmE1srRSWjqV6GUJR6agQgZMPEsGTztfpFCJXpfh5z5/Tz7a2tpk586d0tHRISNHjjSy0TvhgMC2izTtkVWvPScNW1dLkbRl67Zd8jpaJNXWKAltG535pdJRUC6ZVL6kJaWhUlLcb6iMveR6yS/rr2llCV4fZbAMz88884z88z//s1RWVsp5550n/fv3l4kTJ8oZZ5whqdT79FTB6qNONr/ymDSsfkuKdC7YVlBmEwaUa+qlr3a0SV4qKVWDR0rN1HMkb8hEkfyjTDZPAtLptNTX18uOHTuMAFZXV2fvnN6gbl9//XX5/ve/b/3ht3/7t2XIEMY1h8NxPHAC6zi9gVFM10vrhkWyae6jSmArpOayuyRZPlxbb34PAsvaIiSnUTJr3pCNrz0thTVDZOCFH5FU9QgNX3yqbOgHhEDopHm/yMGdSh6aVQWsukL6W0TWvCWbl70jVYNGSvlZF4ikSsOjXXTGNoyyASIV6iD2RiT5IFJQ0MlWE8PMwoUL5ac//amtNn3+858/yuNShqQOLYaS773bJUn5OlvVaXnVP9OwRw68/Zq0Nx+UAVPPFhk8QcugaXVquSBURWUitcN0flOu4bMErw/WOzqD7P/DP/yDvPDCC3LXXXfJxz72McnPzz+EuL4vq45sG2jcLjtfVQK75m0ZNX2qpEZNC23KlKt1o+Q1fXCv7Nu0VvZs3y41SmJrz71Kkv1GhfqJdXESgY7iCvXcuXPlS1/6kpx55pnmD07nFVlkdALrcLx3HLp85XCcJjhkVqUDPe/o8MiYR8hcR2Cecp3FJHAio8ZLiRwO4wpOX1v2HqEFYs9haY3IwPEiQ6aLDJ2hx5nqpkpnzXBpURLXXtpf/SeLjFD/EWepO1Ovp4hUDlKlFpghDQY/rKSdbDWRNkRi9+7dsmnTJmlpacnm1wvwZi8lZCdZrORHJx5Dp4oMO0NkOHJr+bSs7UW10gpBhRwN13IPp2waZoTeHzBOyauSWHvZT5M62QV6n4DO2PvKtgG2CrDqyl5JyCv33ndyZrpMSDqlbaZqsNbDRJFB2o4GKZEdrHrX+klNni21Z18u/QYPk4adm6V15ybRmYbWabYPnmSgA0j++vXrrX1xHdvbEduYw+H4UMAJrOO0RLdphozqlZLSRHQYJiM6IURAzgUEKOsSRobw65TmxiYzco2N7N87JHIXeGGGx5GEY2UHcL1v3z4jEzyuPHjwoGzZssWM5rZt24xg4H+kNLnHyxrEWbdunZG4/fv3m+HNBfGbm5stL47cJx7hN27cKE1NTdmQEdlySp725EI9FKsrzboSpe350qlko81eZtL7yRKNEl2RXvPCjeooGcgQcu7X/DZvDnJu3rzZ8sc/AhmRg5eJ0EvuvQh0iI737NljuiIc5+iJ+BBYyoiO8Uevh4FysZpqL5qpvEkIKa5Ey1QirVqmtD2+puy81KdlVv9wzopynrS1t3XJgEzITX2hS+TPlR1d47dhwwarVx5HUweEQX7qiy0QEaRF2oSJOuFlHOKSRizXkdoE+uGlLPQc88MPOQF5oSMc7ZD6wQ+dUSdRZ/gDrsmTtrJ27Vpra8gd04vgmnqgPMQhTeIhM3F7rYscUJq0TQy0TUW9R5fgWC6JyoFSWKuTpnSrrchKR1g9R0fIT/0jB/VCG8PFtmF56BG5du3aZXWV289yy4OslIN6I3xMk/KQT26aINYTuqa8pF1XV9c1ocoNmwvaAOlSX7F+SZ88e6aPo764T/qEpV0cbcxxOBzvDam/UGTPHY7TD6zcdLZJx74dUr9llZQUFUjRqClqP3k8zH5NjAJGjRd7lJDYW/hqhPepAd+yXlJF5VI6YrzyuwolC5vkkUceMcPOW9x5eRCgQ4Ghee655+Stt96yx3mlpaXyyiuv2KM+zjGqPM59+eWX7QWMpUuXml9RUZFUVFTY6hiGKq4AQXCWL18uL774orz66quyYMECWbx4sREM8q+pqZFkkpdgwmrbihUrLCxGE6JCXs8//7wsWrRIhg0bZuEjackFL9MEX/ShLqOkp26d7N2yQQqrBkjZqImB2GZJKw57ShxiUO6lS5dp2V9QOefKgrdUTs0T4kCZeOMdeSEJkC7kgiix35CXiqJMlBlCwX3KSniI0UsvvWS6Yg9sJE1LliyR1atXW7lIo1eYrGwNIH3m22ktWr0c3LBSm0WTVA0fJwm2h7CSTLisFmgZdTt3yP2/uV9279ltdccj5meffbZLLvJlZRNy8vbbb9s96pVz5MIfsPUBWSkr+1ApK9dPP/10l04oL2WknRAe8gLQG4/8o34IC6mhTnFvvvmmhafe0QnylJWVmZ6efPJJk3XlypVWP7QPdA+Rqq2tNZ1FfSMzMpD//PnzZdmyZdYuWbFFZtoYgMC98cYb1r7RCeVkjy3lRobJkyeb/2GgX7U1SP3mtdK8f7fUDh8lyf6j1IIoic2WLbQk7YvpNmnbuUEadmyWkv5DpXCwhtPJ1aIly+Txxx83fdAvyJe2Tv+gzPEFJsgfekE/lAcdxPKgb/oZR4hhLDPlgLDStmiXpAkxpY5pv+iOOqEPkudrr70m77zzjqxatcpIMGmWlJRYPeW2ZfSOXqhbHH0eXZMH4wi6ivqiz0KIo+y0N/JAFuqTMYI6i2MEYBwgPdoJWx+O2A8cDsdhcALrOH1hY7z+UQKb2b9dGpTAlhWmpGDEWEnks+exQxK8dZ9pU9eqtpPPbHFsksSezUpg16p9VQI7cqIR2H0HG+XnP/u5GY2pU6f2+rLHmjVrbJ8m5HHOnDlm1CAqkFpIAESSFSOIAWQDw4QBYlVn8ODBXQQTh5HGmD344INGWiAS5ImhwyhiPPv162efzyFtjCxkBpJN/pAV4mHwcZMmTbLw0cAGcN5tdIPS0JnqYacS2K2RwE5SEsEKJvuGIbvEIWRCjXSTvPLqK/Lwww/LViWs5FFTU21kADmRAwM7YMAAkxMShCGH2LNyOXr0aNNHNPgY74ceesjuQYjwY+UKogVZoCzojpUqCB11EUlwp62yU45QrnABHQ3nSvMl03JQ6iGwrRDY8ZKoGW4E1vRu/wLqdtbJd77zPdmlhAgyCrEjP/beonP2HVJG6vaBBx4wgkMdQWaQDVIE+YZ4Uw8TJkywOiYf6vw3v/mN6QMyC0mBoOAgNvjRTsgHYhYJJH4//OEPrV3QtmgvyAN5JQ10xR5h2gJtDTIHKULOSFjJf+zYsSYrOkX+J554wspI3SE/5A3yBNlFZggv8ag7iDoEjnOILHWCLNTLjBkzjEyCmFe4UALb0ah9cI207t0ltSNGSrLfUK0TnQTaJJOJo/a/TKNIfZ00rF8mLfUHpGL0ZCkYoAQ2v0Tzesf2qgJ0CzGnHZA3ZUZOygrJpTzokf4CQaQ/MPGjjtADL7JRXuqGvge5pcyRAFJ/6Gf8+PFWDvKivtA715EEMxZAkFnphuziH8tMXaAn+m+UNU7kiEcd057IAz8me8jOeIFspIUuSZs8iEN56EcxDyewDsd7hxNYx+kLG+OVjCkxTSuBbdysRiTTIvkFRdLeUC/t+3erq1O3044deuzQY+e+7dKp5K1p11ZJllZJychJkixWQ1heLRvUAEIUIBXjxo3rIhYAksCKDob/kksukVmzZtlqCUYS44nBx/hcd911cuGFF9pb4BivSAQgrNOnTzcSA3mDDP/yl7+0+x/5yEfk6quvNiM1ZcoUM2QYUwgN+UAAIbYQJvwx2Bj0a665Ri6++GKZOXOmXWNEu0hFT3R5B9KPDroJbHYF1h67Z9GZMAO8cPEiM+4ZJSK33HKrXHH5ZXLGzDOMfEIC0AdEibJGo4yhhZRixLkeM2aMEQP0cP/99xsZ+uhHP2rlhcRB/pCblSv2cvIyEuWGMKFT9JxbLjvPKWY8TVCulgNGYKWlSaqVwOqf7pXlnEgQoGeefV4J2kFL7/LLLpMrr7xSzjrrrC7STb0iL3XPp6muuuoqOfvss62OKCNtBQJPWOqAVXnSgtBC4iFOEKzrr7/e6ony0q4gU6RNPK450iYgN5Ac8kAHfFUAHaCTSJ4h1hBRjvhD9mgPd999t8lPvdB+qTvaymOPPWYEFX3TbkmPSQGkitVJ2hVxaDuUkzpjYkKatFfa5gUXXCDTpk2zfIl3CHkFENT2emnYtEo69u2Umv41kixRstXWomyxQevioLp9kt6zRerXL5X9mzdIcUWNlI8/U1KVg9XSFChZ22aTHoghhI1+hM6QF72SJ5MfVp6HDh0qt912m5WHfsbkjTbCBA+yj27oDzxJQb/UB+XhRbfLL7/c0sSfumGSyaSQ+jjnnHPs82OzZ8+2dAlDekxuKC/5UH50Rr+nX5Auer/22mvl3HPPtXhMICDepE+/oL5Z2WVyMGrUqK66oD1E2SHD9COuqWfKC4GlfzmBdTjePbqtt8NxGoF1xADOMpJSW8pHs5r27pKd77wuW+e9KJvnvyCbso7zLfNfkq3qts9/RfauXiadTY2SUiMREktKUUGhXHThRWZMMBqsjGBEcAAygtGCXEJyIGEAwwb5wLBdpiQoEhkMKAQAg4jBhdBAdgBEAWPLqgxkBcJLeFbciMvqLgQOggSpi4BQYzwhheeff76FwVizQoWxPIRUKJSDBs5m3odcGKxkdslZcOEynNc3NMjbSjr37N4tcy6aI2drfuFTRFVWJmTAYENWIeSQJvSAEb7hhhuMmLFyiz4pOyuZEBSIIDpEZsqM/HEVEMNPmTD0EBBWIGO5Dl1D7YmcMqj8XcXqERwvPPPywtv6GdXnDK2nSy+91IgHK20QNVbpINyQCuoVwgGxpfzIG/VPmWMbiUfSpa4gLhAxiA3pQtbRDXUOGWHFMG5FoA2xIsqRMJB+VhIh8BB8dIYc6ItJEOmhp6gfwqEz/LnP6iwre7QX4lFPpEd8wkDkyIN2yEQpgrRon8hKmSG7hKcuILkxzGHQsieVyOanm+XAqrdl+6uPyeZXH1b3YNY9LJtef1Z2rFkteRUDpHrqBZLHS3gpPl+XtHZDushLvuiM8tDO0BUrqZSHcEwIaD/0GcoN0YzElHbIlgL0T9zYN6gT6o400Rt1TF60S1azqVt0zOSEdHHo7Pbbb7fJA5MB6gsZmfzQNqgvyP0VV1xhRJX00RtjAP2eNoXO2M4ACaauCEu7QaeEJx59hXzp7xDp2I4cDsd7hxNYx2mL7iG+00hEJpOWYiU/1SNHycCx42TImHEyTI+4oVwrORk8Zqz0V6NdOWCgpJSAdqcRDDLGhNUoVmx4LEi6IK64sAIKKcUw5hpxyCxkAAKEoYzEl3P8WCnD6GFYSYtzjBVpQPIwhOSHY+tAfBTKo2IMMiAsRhkDjnE90j7dnujdFAbZ7V5XMbgKjrxwu5W0r1+3XlLJlBSqId6wfp0sUz2wQof8yA3hZHUZgkHZAIaa1aybbrrJCOuPf/xjezQO0YWc4CDhPQ117nWufo+NKDvIkleu+ZlZ2wMd7nenThlDHpC9adOmWzkAftQ7xJX6ph4gRtyPMnHEH9JBW4jAnzJwxEFSIKOxnmKbYBJEfEgyhBVAdCA/5A2phFihV+JQ75AwVuZi+zoauA9poh2hZ+qFNh23plB31BfpQaAJC6LcyIvcyEN+Edw7MvhonZa9s0MKMh1SIh1SKO3mihJ6nZeQ6ppaGTb1TBl0zmVSOGKaJAqrNVF0E/IFkGzyjhPECFYjkTlObpAxTh7QD/Eg2/QZysqe156IeovlhKiTLnpmksDkkbRiOM7p1/RfJrBMJrkXX8JCf3G7Ua5uiMc9Vk6REf3iSAuiHCcCgLCQaVbbkZ06Qp4oo8PheG9wAus4LcGwbkO78RL2RvIrSynJq+wvRVPOl9Lpl0rZjMukjKO5y8yvdMbFUjLjIikcq4auuFLa7QUgElGSowlWVJTbyhorZ6zKYEgAjwlZGcGYs3oGmcgFxpQVRMhQLjBe3INwEhcDjB/bBng0Sbo8Mv73f/93+bd/+zf5l3/5F/n6179u5zxyJA4EEMMGMGikx4oQxORUGjjkRD4IDkdWT7/5zW/KN77xDfnXf/1XO3LNHkvkQMZIYDHy6IJHwKyMQSjYy8djaFbPWAXEcH+QMOKjchernBAQkKtPysxEAyKCvnvqGvkhodwDvdUF93oSXxwEBoe+ILAmi6aHvmhfENh//Md/ND2zhYG2hzxRv8cCdUe9IT+rq2xVoU3FNka63/rWt6yN08YiUY4O8gj5yiVax4O0dqV0qkiKJp4hFbOvk36zP6ruZqmdfYtU67Hy/BukdOpFkj9gnCSKa1QhPDc5FLQNJnUAWQDljl9GoC/Fpw1Rr4SjX1CPxKXsse9GxLLFOIAJBE9aiEu+uU9VIpiMMUlBpxBXSC/9l/pAR7215Sg3QHbkIR5h40SpJ5gskC8TJ8JGeR0Ox3uDE1jHaY5gaNS22GeT2vOUQBaqYSweqG5A9tjzvJ+k88rtF6j4edGwLpexvxgyVmAxJqyEsAKH4WLlkNUXHlWygtIb+cIvGr54jOEgc6SDweSIi49peUT5uc99Tj772c/ax8o//elP2/lXvvIV+drXvmZ7Y0kPY0Y8wHVufqcCpA25wrHqxZ5M5ERGPgjPkR8c+N3f/V354z/+Y1tVRX8xLqDcGOwoN2QA4v1ucCqNOHLm5ecpceleIcUPB/GgjigTxCaWKRfUQSxzb3Jyj7Jzj/R6huE63geQsz/4gz8wXbMqx6r/fffdJ3/7t39rExuu44rtsRDzY4XwnnvusTYV2xj1xvF3fud35A//8A/tcTygjLFMsVzHDVUPv+TWzk8yF1VLonKYJKtGSbJa+0u1HstHSKJ0iN7rF/ZbJ/ncluo6Gx1ZyR9CjQNR5xzRE2VHLq5xMU50MV6cFBwLxIlH0iV+9IuIeXKMxJJzyDT+sY8fDcRBftLuLXzUOfcJR905HI4TgxNYx2mJQ0wTq6gYQ3uAiVHMOvtln1yHQQ7fPFVTp66z+8cPos1SAwJxwKDzyJBH/jyK5MUWVrN4kSKu/uQCo8OqTE/DE40oqzwA8oaxgshB7DhCDkmXfXE48ubIPjr24MWtAuQZDfT7AfKDgLIKR/5shUAeZOOROjJzzTFuq0C+aKxx7FlkhRmdQc7YB8w1K9yEi2HjOYh+8Twi9/xEkcnmF1zwi+lHf8pN+Zl0QFZimSIIQzloF/hTr5GccC+GjaQo1l1sO4ThPDpAfPZ03nrrrfJnf/Zn8nd/93dGMtEvK9i8pc+kCkQ5ewPpxbqjzfEIPNZXbGOc08Zw7MWMMgBkP1LavYOwIXzGnmpoX+PFOX7Zzfoj13wbVh3XpifN7whZ9NQzoK/QDnt+7zUCP/ogdRXLfixQJ4QlLiu2kfjGPKMeWEFlEkM75sgqL/F4OhLbckTPc9IkH2SHAHPdG2I6sZy57cLhcLx7OIF1nJboGtbt8T/X4chfpQXmc7jLBaEgr5yHe9HsYEAgDDz+Za8gj3NZjWV/HEQAw5VrpACGCWLB47+IGAaCw35GjBGruxgzSAX7IwnP6i5Gl/CEgcRgOCPxyUVvhvtUgm0ROLY+8Cgagh6NOojyROKea3TZz/uzn/3MiMHHP/5x+cIXvmDlhsDyrVHKHEkfDqPNkbQ4kkeuO5lg60BP3UbEMjCRyS07ZUWuCOTnDXY+7UR4ZDyR+iFuJFDkwwQnvtD3yU9+0ra20MbYe3kkEhSBPMjOI2v2eCJjlD/KSBjaGNecnyzwxWVNUB1EFpe9TnLUAD3zOkLV5tY5cqML2g9PQpgQxvJEnUEA2ZNNX4SQoz/8Y90QLuqNNoYffZ2nIFyzR5W2GsMD0ic9xgH6PZNN7rOthDzovzHPXBA/1ifxmLwhO2Gj7DEPQDi2c9CmeOkMgtwzjMPheHdwAus4PcG4bmM7fzDISnK6yGyOgTSDmeOyETv1HEPLB/7tBh7cUYOBUceI8OgVcsmnjSAArDryoggGrKfBx9hAclhhxEBh0DCKkFfIGmQO48fLKcTFqLEiBni7mRdr4goQDmPMFwr4tA6rPKcGUPhwPBIgQdOnTbdzPtSOAY4vHmFsOYcgsUczknd0AdH6xS9+YUc+9RU/Ecannigb385kUhCJL3pHJ6yaQSTYa0j65BPRU+dHQ6hlwh9/nAhkIS/2UzLh4JrPNyEXsiMT9cs19U25CQ/ZeTcy9gTpokfaHCuJ5IEf+iRtCD5tMxe95RdJD6SJF5Mg2bQj5KW+uI9uyYO9yUzQaHsnRpiCrulPx9J7qJvgjqd6KCOOJxGxPHz+i35GOWhD1AufE6Ov0Wapt7hPHb3RttAl7ZGwlJV4tDderGIyCYHkaxn0WdJF/+xzpd0Tj+1DvOQJmBiQB+AHCSDV6JA0Y79HHuoS2SHfvPDH5IOvEbD/nTxwxONJD2WCFLMiHidzJ9KeHI7/6vDvwDpOX0BYecu8Uw3B/jrZt3m9FBaXSsmo6ZIorNJ72dWfXNilksu9W2Xfto2SKKqUMn6Jq6RKg4bHdgCigAHjsS1Gnse6fGIHI5prWDD4GL74owMQXbYeQA4gexhUvltJWryRz2PbSEQwsBhIVncwkMTB8EEIyZeVSn4ZiDiQqUgMuYfBxdDFl12OhW4t6BkXnUpA6zZJ3dZNUlg9SCpGT9BC8xOybLMgQIiBrKw2QSghV1s2b5HmlmY5eLBey7fFjDHlY28mBB2Cjw74rib3ImlFftJCj5AotmRQdsrBSjc6RZeQWsgAuiAcOuRFmWOXM8ib6ExLpqVe9m9YLZm2VqnSuk3UZj+ob3WWDacOXT/99DOSl8qTK6643FbIYr1yRF7qCOJH2TlCOCBOkBNeskNWHikTlkfzEBUAUYHcQiJZQc0lIpxDYPgME3XKS1u0HR6N87UG0uWRNY5wpEU7ot7jiix6BpAyvk1Mm2MPcsyfPCBnrEKygoz8ED/IEvLTppk4UU88HYBcUc+Uj7Dcp92x35uyHRvaDzsaZb/2wab9+2TA8DHhl7j4CeOszruP3TCfrDflpL3Tjvg0VXyhKoLyQERzJ0z0K9ob17RD/NDDRRddZKurgLaFP5NI2hO6QV/UP3qkjglDP0QXtD0mjeQDOX300UetjfLdWQgsYeN2AnRJ/2fyim5Jk3N+uYzPx5EOE2Fe9kMe+i99hbqFSFM3kGZekMSPb8nySb1Y9jgW+HdgHY53DyewjtMQYQU1AtKSblSDv3uXFJZXS+mIyeGnZHNIQzeU9EJyGvdJvRq1/Ip+UjZ0tCSLCM/qVogTSSoGDSPDJ24wLJCcXEQCC5HhES+rNKxoYXRwrMBgfDBMfIszrgoBziPhwOixCkPc+M1UjBifosJwYfwgOxhe0uQzQpAODPrRQGkO1wI+aWk/UBd+ZanfYCkfNlZ7u6YVCawtj+mZ6qCyotKIWKZDCfTGYIAXLnxHFi1eZJ/4inIiD3qj3Kz4QQ7uvPNOIyT4A8rBKhOGH8KC/PH7opAtyBIyMSEgHww4RAodHgu28t6ZkUy7Eomd2y3PCi1XsnJAKJe1h6AN/kIg5s2bb8QNUlhaGh45230NyznEm0fMhKVOIN7UN0QbmalzjoAJBQQd0GbQDWWDoMbyky6ArNBmiEv5WNGL9yBZpE8+tAccq/E8FWA1m1VI9ER4CCfhkI/2Sf4xHfJE/jhpID+IXkwT/XOfMpAmdQMhpn1RPzxxQP6eq769QwlsulUad9dJe2u71A4dJcl+w3IIbJAJxKtunwCIKH2AvdZ8AzbqLIL6oE3hIIqEpY3Q3phQ0A754gWOckWgD64hk+gRokpcdEgZaYPoiL5NvYX2HXREv0QH7EmmHkkLuTgSnv7LNcSUOqPvEo/JDnvC+UEEjshGHTNRYeIGmaYuCI/spEXdMkmOEykcE0faHfLxBY+e44/D4TgyEjpoZE2Zw3G6QAmsMSxMYKc20nbJ1O+Rxp2bJU8NRdHgcZIorLCQhwMC2yHSUCeNdVslVVAshf2HK+Hlrej8LgIDMF58uxQD8olPfMJITiQrgLCQSlbNWMnil5r4aD1Gkris5LBiAvGAxEEQMEoxLuc8bmTlDaJGPIgNBhFjh+FjhTKSVMgFBBaDhxHH0OfK867Az+/u3SIH92yXgtJqKRnEr1VBYPNNRYdB/TC8GGrkbGhskFRe+J4pMmLIKR8rYhAlyAjEj8ez+OeCckDS0CsrW5QDPaEPiBarf5A/9MfjYMgM96POjopMWjrb66V55yaR9hYl5zpBqOiv5QrEvDO7K4ozI7BvLlByoURGyWdJSfi52551RB2zEgqxg5ggP4Qa0gf5RV5W35i8IC+IBJZwEA9AWjFNCBj1SFrsqyYdQHtAd6RJnqRLHVPfTFogMnFFlHTiiimEM5cIx3w4kib3qTvkJ00IFWlBzphQxHaEPNQL8lMe6rAnkewV/BJXukmad22Rtvp9UlEzUBLVQ7sJ7DGqDdC2IX/IxR505M8FZaEuOFIe2hkEj/JQbspCW2S1PpY9gnPCQl7RK9dsAUD3EHSu44ooeorbQkgXPTCBQ4+RvEbZkIc+S38nLvWKLiGq1Bf1ljsBiH2YyQNHriGlrHQzTvTsz8hMO2KySz9hkudwOI4PTmAdpyFoklBYaIgak86MrcKaETW7wlvOhz5+7IK1Zv60h/Cdapx5U5ovGGCYuK2ASPH48N577zUDxks0GMdc0DUigeVxIY8Y77jjDiMH0dBGgxeBX89rgB9xcIB4kTjEMLlxY9rvHZpPhm/LojPVV9dXGzT9kF3v0NusxHakOySZCvsyo3xHQm55eyI3bm7Zoi7iSmP0P1pa3XJrmXBKZsM2Em0LFi20l3AGtA11Qka60z5SHlHOWK+EySUmufF6pkGcmDZ11vM+wC8eY1iOkCZAXj3j5KJnHkcC6cWw6Daex7jxCDg/fmgc7YemdzsC9N6to6zSe0VueZH/WHkTPjriROIXZc9FblqUFwfiRCAi6gKQZjzvqc+eskU5QEwjxuE83ovnOM4JG8+PVuYYxuFwvDuciIV0OE4hwoBufyEpENZUoR7V2Wrb0UAsjKuGTanhIz42Jh0MGysxPGLkA/0QB1YAWUk5GjAwuUYGg9Qb6ejtOvoRB6PaM14ME41cPD8xoDPKzqorxj+sUBoOFfEwkHd+Qdj32RNRvlx3NBzpPjpgIhDvH5cRtz3ROC0bZYorykeJF28dj5w45Ip1lIue8ZE3F7n3e8srph/rOB7JC9dbnFzE9nCscFGvse5iPiD3eKx0DoeGt4mQ6jt+Lss+bffu0LPtHwuE77lqGdFbOShv1GlPRF3guE/aufL0ll4uYtoxTm68iFx/wuWGPxKOds/hcBwZJ2olHY5TAAZ0NQT2L1wFJMIK29EG/K5bhMtp3hklHOqWLF5sL1T85Cc/scetvAzCPrnejGQ0LCfbwJDe+2O0og56yetI2cPLiNZDvhORuWfc3tI5dtoIFl0EcY40hOWGO7WI5DIeTxXeq/5PLkIfDM4uu91R8G5lJ3xv+sQ/upOJY6V3rLrNjX8q5HM4HIfj1I64DsdJRZfZPE4QFkOiLqkx1ag88fgT9tks9tGxJYAXK9jXeDSDw4oW+1Rz97j2aaCWd6HG06HM3aQpOENckX0XOBllIY0PSienQ11o6e0fCE0p/Puw4nTQucPhOBy+B9bRhxCb6jEMigXTPxYsa2j1sjPTKXNfmyvpdPjpVF4myf18U09DRdfA8cINL2ERhxdJPkgCc1JwPD3+NCseIkexES2IF/didgsbyW33ROc0K8iHCN3NKJxFUutwOBzvB5zAOv5LIDZz3gqGfB5rX1ou4osxxDnVj4kdR8bhlPRwH4fD4XD814ATWIfD4XA4HA5Hn4IvJzkcDofD4XA4+hScwDocDofD4XA4+hScwDocDofD4XA4+hScwDocDofD4XA4+hScwDocDofD4XA4+hScwDocDofD4XA4+hT8M1onG0fSpn+q0uFwOByODyXir9EdYurx6vJwEnCy4QT2ZKOnNuNPXXZ643U4HA6H40OHLvMeCUA86g1O+/IvN57GcAJ7snGINns0YofD4XA4HB9eGFdVg3/I4pU657AnHU5gTza6OKue8L89Lc31zZJIJySZSGVvOhwOh8Ph+LCgMyOSUaPfmeqUguI8yS8pyPIAJ7CnCk5gTzYOIbAJ2bhinfzr3/+ztNa3SX4yP3vT4XA4HA7HhwMJI7CY//ZEu9z6sVvkyo9eHXiAwQnsqYAT2FOBqFE9Ln71bfm9z/+uSLNInv5zOBwOh8PxYUNK0spimzqb5Kt/8lX55Fc+JZLMkgEjr85gTzacwJ4qoFWdkS19ZaH8zm9/VfLa8ySZ4atlCW/Gjr6ND+OI4Z3S4XC8V3QmpFNdWo1+ozTJl/+fL8unfi8SWHVdBNYHmpMJJ7CnCr0R2HSe+kFgvRE7+i66nop9SGBb1BwOh+MEwLCYTqSdwL6PcAJ7qoBWexDYlBHYlCrdG7Gjb+NDQ2K1K/oA6HA4TgQ2huig2JHocAL7PsJ/icvhcLxrMAf7ULhseRwOh8PRt+AE1uFwOBwOh8PRp+AE1uFwOBwOh8PRp+AE1uFwvG/I7gg77ZzD4XA4+hacwPZJJOyvGV/by9ep54ea4W7DHMICC0XYQ1xMoztOd9x3g+58QO/xjydM7zCZsjIGkFZIL9zrUaasf0BOuKzrRkynR5hsWplD0lVnoXoixI3oSiPH9QzD9eFheofd1+hBhu7wvcXp9usuTziPLjd+bgq5YUK4gNzzXPTub+nqrW55D3Ux+XBfddDrea4jXojThXid69/z2pDjoYdD0+3OD0R9hGNwPXG0exEmb/b8WDjecO8W3TJmC5dFZ4/reD+GDw6/Q113eseL7nQDwnVAbtq9oaf/kcKRfk+pQliTV08Pzf9o6eSGPRQhLdpgD5e9F3G4bt8Nony5afS8PjKOJn9PHC73seIfLsORwwYcrvtuWF6H6PLY6R1bD9w/Uph4r7f7R7vn6AtwAtvnEA1KQjKdGRsEMvovDKr84752SOuTIWz8bFcmkZFEflLSGhaXSULQiB3+xQHFgtt5zCkcezo+YJFR1/UdiywbQAriJ5Qk6P9s/IgYJiAeg9S5eUWQWkZbKj/PVyTJ/DwLxZccwtccyEDDcL+kQIrLSySZl9TrmEpo4sia+8+Ejoeuy2zuGiWtyWby9JiXlnQqLZlURtJJ1ZI60wvZWvZdJ2QT0rb7WWeIGgjhEioTurFrO4SwFjf42n2O+PFtQclPSFFFiRQWFYawCJwNFxFz6yqHJRT9w0VGLzq13SQ0DVyo42wgdaZX/mUjB2/OA7J3TWSL1xMkZfpTubVOOhJp6dB/adoZ9+znajQy//UY0o8I6dlfK19WzqwEuc7Krw45zI9jdBYmyhlcTiYGwkWgA9pMSVmJNZeoN3MmKHLoJU3J/JGbBNChpm91pXWaTFj9FBYX2HmswyhTLix7TS+R0raqd+3aAnPSXd4IuyYdC9iN3DCg+3Y2fwRX9PQPMdWlElbuIEf0Ru5wP8TjPDeNgGwKPdAdFh1lrMGp7yFOU8fZvwD1VuhV7n1VeJQ/huiC6i6/MF8K1IUwVA7QmtCyFJYWS6pQx4psGt1ljgjp5abaIwdNUsvPGKl9n58HFX4JXI+d2pZtrGT8VS9qi/S1FelVzzxoI/E8wCTRy25ddB+zd7N+8fpQWIiQaMhBT3Hg8NDdCMmFtmvxuAYa6TD1GHI9QgyLSRrZdEB3VB2DiwokvyDP2j/fRaX+qUeLho7QHZd5ek91y9gW0qHMOeW2/g+iDHqPv/on5KfpWtgYrzt+N7rj5h5jPMs25148c/Qd+Ge0ThXQ6kn9jBYJEo+uG04ZRJReyejRI2X8uPHy2tzXpfFgk467aoz0XujMdEwoYEZqBtbKxZdfLKmUymHyZWT//gOyZs0a2bRxk6TbM5hhIikYlmkgIVeCR7GDnw5Aeo4jPxsAMVYasjtcNiZNjEFMU4+Dnh31tsmo93W8M98AG566zhjkSivL5cprrpGlS5bJ+pVrRTrIWbPUAVHyOmXk2JFy+ZVXSEdbh7z0/Muybu0GS5vy2MBpxiYYHPO3rNQfwc0Tl7AB+Kxzz5ZBQwcp2VcvDYgMnWk9KgPbv2e/LHp7oezauYuUNVIgIEFazQF5sgi+pB/uxjDhLExAEMZ0h491xZiW5WrpFZQUy2VXXy4TJ06QlYtXyDNPPi0dHemgd41CLOvGJKTOdIqfnWj6ajFIFT2kO9NWFSNHjZAxY0bLiuWrZMfWnVZ3ITp/uAyJUDZqOZBeShvK241sZlkk81MybsoEmTp9qobXEmgba25pkS2bt8jaNWulcX+9JJgd0EZJB4OGbPwjqazMBnRJs1HdJxNKRvRo3tpYgu4ITjzq0W5ZVNLiOibHrS6Da+G4qS7rl8mkZdSYUdZ+fnbfz6S5scXSSJCH6iE/P18mT5ki5VWVsnjxYjm4fz+JWDqkb/JreoU6gZp1/izJ0/71yguvSFrbqGXXhZwrLdfosaNkyuQpMveV12XP3j16W8NretYHEV6PsVz4dyHe5pT8c5LFPwzpSuRMx5zTJgmEQ9pwn7aPzLffebu88vKrsl77DLeo45BkiB0QzkIK3amB7jAgpG6TZS2j1U9aj9kCBJIXEOIzMoGYJ4hhg09IsTsX2iFk8rzZ50tBqkDmv7lAGhubNUgIw0T2pts/KgvfXiSrlqy08oSSxDTCkToOqes/PUXE4INuaHZpGTR8kJxx1gypKK8w/zTtualJVq9cI2tWrQ1tkjImg/zoniN5dPW/7N8wHnKMcoDgFxDjqI+FVZ8uvXXD7uChJxyyQbNjWu/IDWf6zMpCoUNS4cgfyhmCRl887a6hu17w1rBaIZxDXK+45krZXrdDFr+9RDpaO4zAJm1w135UlCdjJ4yViVMmS0lpiTSpHteuXitrVqzVPtdseiEbG681RmgXAUFm+nyUjhB6jOUwEBmJuRfaGWcRIZTKQ1J6RdR431LBP6ec7wYWS+P6Z7TeX3SPJo7THLkNX7uodmY6W54OGtfffKPc+am7ZeoZ03RWSyfMBlMYzVQ/iO7AIQPkmuuutlWE1rZmHaA7ZNTYEXLHx26Ts845U5KsMFhXzHXZs5w0Q8fXf5p/aUWJzLlijoyeONoIH35hAIlHhQ7uDDzhKns0KxTC22w9Gzo47qmfBVTzk0hJQWGhTJo2SaoHVmdXQSB3wRWUFMmZ581Sgt5P3lr4juzevVdj6z+MSkrT0jBJzS+pRC6lDlNDntb69R6DDOKYFJppR3u7uRYlXqOU5F1y2aUWtq2tTdrVP6NGzMQnrkkcShu2GwR/0jJnBi2Goc5CvXGOgUcuMwIWhMjc4x9Wn/QyMmb8KDn/wvNk9brVsmz5Ukmn0xYC6seqJtGSlJVz7li84AKCnIGEJiQvP0+KSkqkqqZWzwusPCE8q6R6rnIF3YbYgCokH1ZSrQzZNHsiVZCSidMmyKzzzlRj36HzjA6p7Vcj115/jXziM5+Q4WNGaiBqxw6mG1wyq6c4LUpqHZ87+1yZoeSBNDNKJkxXhFLZjBxZjoCzrJb1tLv8WVnVIaulnyWlQfbg6DMVtdUyTfPKV/KDLsOESoGMqaQUl5VKVXW1klmd/GWBDjppu5pXBxODvKSM0InBcHWd2pdYhe5QB19Pq+xBW6G+aYOs1lbV1kgqj6cKQRprk7Ftqo/JHO/GcpmfXRo45ohrhIH6ooWEm7igV5Oa8lvAjOQVJ2X6WVNUjgrr/9Y7LF3qOOpO243+RQ7+Af5Gd+iZ/tMEICvnzzlfps6cIqkirT+7p7Wr6eU6/II2QimtD6kcGa1/a4Mxb0te/3BfXSIvISPHjNCJ6wjJKyR9JUvIqmVKasOaOmOq9B9cq3XLyNehMWN/io70QpJBGXqqh6ht/mgoGT5iuJxz/nlSVFokTTpmtnW0yuDhQ+QzX/qsnD37nFBP2boiXiRfMR0rj9UF/2Km8RgRYlisbD/IbbddMmfzsvOsRoNiggvyHw78bDXb6pZAQd/hZjjSRu2Utsc5t/ir6cdxBdhqajhTH50YZMtLPdFPx08cJ0OGDZJUvuZAeyK4ppEqSso5qq9b7rpVSstLZN++vVKqE/PrrrtWzp99nvaFAvsZ1vCPsmq6JhPpq6PctAvuUn71t5bJUcMFF/yCnpE+yB+dXVsc0o33NQb37Z66EMTRRxBbo6PPgE4XOiArBEOHDZaJkyfIgnfelrPPP0eKdaANgxvBQm9kFsxgYI/W9d7zzz8nTzz5hDzyyMPywAO/kS3bN8tZZ58p5ZXl9oi8y2nnzj3vfoSePaorqSyRGWdPl9rBNZLJy4YhrMqXUsOSKEiYX4cakDDwRJe2QS4PcqLnPG4OWxq0bNoq2erAQNauBIiBDdjYqWl3Dz6EVxJfmCe1/fvJhi0bZfHSxXLg4EEKr6QHo6aGKy+s4kJag3EPAyJGkkeDRoY0PMSmvbVV3p6/QJ547HF5/LHHZPmyZbLvwH558smn9PpxmfvqXNm9d489FudfZ0oHbi2HPWpEL5pfl97sOvhTXjOm6hIaPlmgmWoc6jDog4EVeZTYFeo9ti9oHPKoGVAt7elWWfDWfNm4aaOFh5iTB0YD4gSxNFpraaFL0s3KoY58cZ3mRFatXSUPPfqwbNq6yWQXLQePSsnXyIPJn01DXQdl0HtJla1T9ZlJBsKguVndRKBHCMW27dvk8ccfl0cfflR++fNfyH333SclpaVy9XXXSGllmepcy57WyYDl0e2CvHqueUw9Y6qMmjBG9ZVSgqia0PxoJ+jI2gfn1KMeTXe0HZUBmaLuaaPhPFxbHOTmHmHxI13yV1JEHqLHOMEh/Zb2Vpn31jx56tmnZI8a3hAnpBUeK2tYPVpeqkObyGk86oY0rU9k2z/S4VjJW7l6lfz6N7+WXXvrNLDKQ1pal7QP4gcZs3Gy55Yv51aGbtddRnLSutE8k5p/Ej1ZmJCGOZNZj/kqh9YjfZQ0mHBQB0YCrY1CDoLc3WWmDnDExcXr4EJdoIOkTDtzmgwbM0zTp46y95FRw/B4H72RpvENRSgb/ZX6VZlUvkhkQ/5aN3qNXPQ75GZrjZVF9YWebGWe9qEu9MUODa93NLwRWfLPpqex9IhT/YSrbv/s31ReSlpaW+S1N96Qxx57VB5R9+N7fyxLVy6Vy668zLYw2JikZaNvITv5x3Ja+bQNGPkijOYX8o95c45/cLGeu/3CtcWh7KpX+nvMI4bjvm3TiTrOdcihLgxyUFeVh9Ihi8nNQoiOI9anVE9W5zFd7fuUS/OjHF3jePafhgrjaLadC+qgXnVc48kGhF5TkTLt8+fPuUCW6gT8l7/6pTz15JPyq1/+Un6m48LKFSt0fGu3/Gxyq+Wj/ZF3lENTs7wzKgftOugTvSBj0E9XWQlv/iqrlS97nhM2tFWurQShTEE9jj6E1F8osueOkw0dJXZt2imPPfiY2gTtlGaVcma/7xXWCUkqI7fcfos0NTfKIw8/LOeec45s37pNdtftYq6twTSQDiDJpHZ4jcZj8XPOO0eeUGLR2NBoj3ja2ttl8NAhMmDgQNmwcaOcoUR2yMghcsXVV8rlV10hq5XoMCDdqjPnO+6+U8694DwzzNt3bJNBwwfLDbfepAPTeTJs9HAZM2aMbN+2TVo6WjX+FfLxT31cZl98oVT1q5adddulUeVksK8dWC3X3XCt3H7nrTLn0jlSVFasxGyTlikh5194gXzi05+Qy664VGfyA5U87tV4TUZ+zr3gHNmwfr1s37xdOjsYkEWqaqvlHs3nAh0chwwbIiXFJbJ39x4djNJyyRWXyF333GmGpnZArazftF7aO9q1fEPlio9cKQNVH7fddptUVFTIls2b7ZEvlpDBt0MH1A4NO37CeBk2Yrg8+9Sz0tGkxCCN/P3lvAvPkzFKrq665io546wzZPW6lWrsElYfd3zsTpl17iwpqyiT8Tq56OhsV9JWImdfcLaMGDtSrvnI1XLDTdfLkBGDZcPm9dLa2ib5RQW2YnXnx++SOZddLEOGD5V99Qdk+hnT5IaPXi9jJ4yT4cNHSGtzi2zevEkGqm7uuOsOufb6j8iEKZOkoaVRydUeGTRksOrwfBk+apjcctstMmnqRFm7YY3KdIcUFOfLR2/7qEyZPtkMxqTJE6Wh8aCM1LqbcfYMq8Nb77hVrrr2KhkwuL+sW7fG9JBSss3q/l2f+JhcoeWtHVAjY8ePkX79a2UvZL5NSZD+Y2WPtjFx6iQpLiqWN+e+KR0tSjy1ne3du08amxrlkksvVV2tkV2766RQ5bnquqvknk9+zPRVUVsho8aPlgFDBupk7Fy5XO+NGDNK62CikohW2bJji16PkE9/9rfkKtXh8NEjlNzXysixo2T37t3S1tpufQM388wz5KJLLpJVa1bZJIH9kuepXiZOnSybtmhbU+NaWVMpl1x+ifWj4pIiOeucWbJXCepdd91p7b92UD8l+Ju1zbTJtBnT7PHn7j27pLmtRSZOmaht62656eabTPb6pgbZc2CPTJ4xUQYOHiRDtE999JaPyowzZqiO623FqRODbj2RZtap/WeAXHTxbNmybautKLLifNtdt2mbulKGavxd2o8bGhs0hsaiK2uY4Vr+Sy6/VHbs2iENzQ22MnjxFRdLaVWZ7Nm/W9O7UIaOGiITp02Suz52t8y+aLaRgu3bt+uEIaPhSuXiqy6R27U9nH/R+ZIoTMhk1cmitxdru9ps7fAsLc/dWtf0qSrVUd2uOmnTvnDeRedZ/cT7+w7sU3LfIrfefZvcfPvNcs4F51r9Qx6uuO5Kueyay2T4yOEyYcIE2b9/v5F/8vzUZz4pl6neh44YKnXaDurrG7RwSSmvLpXLrr5U7rz7Dq27OVJRXS5r16+xJw5MhidMm6ht5R65Wvtuv6H9pf+QAdKi/WHFshXS2tRijAzClFIiNufKi23ica62o5tvvdn6z36diDaqzi7RtAfpeLdj5w4bD6BHg4cMko9cd63sUD1BWJUeSVLb0fBRw2XYyGGyaNEi2aNtLN3Gk5lmG+tGDB8uc196RcfPwXLhJbNlhLbHGz96g8pdKTt279C+N8nkvfb662Tq9Gk6Zm6Xg9oWpun5rHPOls3btmg/bLN9+1dee6WWv0Lq6nQyo/2ISfmdOo4cOFiv7U3LobqlvTEmM87R1w80HFQyl6f1dKHcec9dNmYO1jFt42ad5Gr7mjxtstbJOTJB+/kNN95oT5B27thh/VSpm7X72kG12q/vtrY6Ttt3VW2VHsdJfUO91fXk6ZNkjPb1W+/Qdnnt1VJRVSHrN6yT9vY2KSop1H6qbeFTd8ucy+dIZW2l6mCkTV7ZLpRppy+GVdqSilK5VOVbtnyZrFq+UjrbdULd3mFbsg5qGZnQMVGdPGOyto9PyRztuyO0fWzbvlWa1W4gxxnnnqllmSDX33SDtdkxY0drX94sza3NRkTLKrVtqz0pVLn21+/Xfnm23K5t6dIrLtN2XCXbtb6btO7O1XFglvb1UVpfd9xxu+Tn5cmmDaoz2wKnIqu87wkaDTna9d85F54jM8+baX7xXvjzHtN29Aqbtzr6FuhmrCIOUkPJAP3sc8+agdqwYYORl/winQYbAomFdNlj4s6MpNSY1dbWSFVVlQwYNFCmTp0mM6ZNN2PZqoZ51nln6YB2l5HNF198SVp1gP/q73/VBownn3pcFi9dJJdfeblcff010tjSJCtWLFNyulNWrlohby1YIAcbDshHldTeeMsN8sJLL8hLr7xsj/MgUGXlxTrIletge7sRq5dffVmeff5ZHUhGSXX/GiOFkNFlK5eZ/5DhQ+TmO24x8mkrKzrwUnp7BGpnouSvVRYvXCRbNm2W9WvXybKlS41wfESJ3YVzZsuCt96SZ559Vo3uWfKl3/2S5BXnKaGukhtuvkHOVkO84O0FspQ4OqDySMx0Fv9hEHNddmAzMnTB+Uosb7S9i2+88bq0qiG6W4nYxZddKs89/7y8OW+eGuvZcr3qof/QAVq+aiVrV8ulSqYhcM88/4wZ/CuULLZ3dsi4SePlljtvkbcWvyWPq55ZeYY4b9V6Xaekfdeu3ZbmVh3QiytK5PNf/YIUlhfKQ48+KFvrtsjl116hhHqslJaXqpG7XAneNbJy9QqZN3+erZxcdtVlOpjfroR5o8x97TWprKqUmWfNlPKqciWBNXKT1tkFqq95C+ab/FerXBgctplM0fq7+xP3yIH6g/L000/ZKv9Hb7tJpimptdUgaiJUiSIM0vGfkQqdvOVJvmzbvEMJccbaHSuN195wnZKLW+TNBfNshXOmTgRuvfN2qdK2QBvYsnWLrF23Tl57/TXZrOfs4f79P/59NRKd8sSTT6nhalXCd7u2m3OlsLRQs8q2C822TevjSiWhAwcPtJUb2hdlvPqGq5WcD7ByjRk3WicI020FnslKv341cvHFc+SVl1+Wl195Sc485yyrLyZwkIbJU6cY2ZikfeGzX/ictGh/eeChB2TJ0iVythKSouIiKSoq0j41RQoK8rVfPiP5Suiu17Y4cFB/VQvysdITVv0HqWwX6ISNR6pTpk+x/ekr1qyUhx97VPK0D7MdIZVi6SsL7fPVKiPbfSAPrIoVFBfItJnTjWhRF2MmjpXPfvFzWrYxqqPHZZW2gZuVnGD42e/KHkUmSIuWLpZX574ms84+W4YOG8Y810g1e3hvvftWmb9wvjz93FNG3mg7BapfJmz3fPoeI0lPP/O0Eu8tRpyYVDzw6EMy7+350l8nd6VlJbJy5UrZti203dfffF227dxuhPi3P/sZ629PPvWUhWWyOnDoQCksK9Qx4yY5+7yz5TXtTy/ruHGpktxP/NY9ktThjG0Zn/ytTxspfeKpJyWZlzJSWKg6p5lFQHZBeXm5nH/++Toh2afhn5Lyygq5RUlYvwH9bSJAvdYM6GcEkP5x3mwl52NG6qRAJ9k61oStAFpfWk/FpSW2R3rCxAkyecpkufbaa+XSSy+R5597ziZWNTU1OiG9QS7Q/r5Mx8MlyxfbmHf3PR9TArZdHnjgAZtE0XYH6ljAKi2TnpGaH6udw0YOkStvukqu/ei1UlFTbquDYyaO0Xqao+Nvmz2W/4hO+JctXyKPP/6IptVuixE86WCSxlg8/5358qsHf62T61pbbGCVevDwQVrmW6ze5i14UzZu2mDjqI2lWq4inbR98StfNCL31JNPaH/bLNfdeJ1cfvUVKkeFDNWJ/q133maTwbnaB1957VWboCM7K6Qzzpwmt+mEd8vWrfLCiy9Kf+3X41VHedr2rRNmxwRsDwsmq1eskpuuv1H7g07ehw+TgiLtsyqHWiZzM2bNlM9++fPyto6BDzx8vz2Juv2uW3SMKrEJxq2336ptfZq8pWP24iWLrO+MHjfSVtsTKbZ7DFN9XGhPa87VMeFSbbdLVy6RJ599QsZNHieX6EQvryRPBo0YJJ/67KeV4E+Vl7Wvr169OuhE6/w9k1fHBwJtPo5Tj5PfKRgQL9QBc9fuXWqkVkm7zq4ZPAcMG2grqBj5kC2Pc9Rg6jXktaZftXxODdzv/9EfKDH9XRsUtmzZIk+pUWhq0sFbseidRfLUo0/JG3PflGFDR8iUKdPle9/+vrz83MvyxMNPyMsvvmJ+hfmFsmTRUtm+aZssX7hM5r32hhTlFchVSqDuvfdH8vTjT8kLTz8nD//mQRnQv79MUJIGca3WWf5DDz0sTz/5rDz/7IvyH9/8tuzbu1euUsLx6tyX5Ve//JW8oP4PP/SoGQ9Wu+wRVlaNGBbbN6vlamlqVnnfkS06g16nAxHn7K1idv7SSy/L0088Iy8995J873vfkzPPPkNGjB6ms/12qVei/dyzT8szTzwpmzdskk4lVmHwUpclrElzYeUcdWbYzmAuLemODpn/+jx57IHHZOGCRVJdXStnn3+efOs/viPPPfWCyv+yPPTgI9Lc0qqDa56S6oy0tXbISy+8JM8+/ay65+SVV+fKtOkzbGtHWUWpEjKdEKxcLgsXLZL7f32/vPbKazror5EVy1fL9q075M035ikh2CCzzjlHBg0bLE8+86RsUUK7RMkIK6msoECOeFz28qsvyZOPPymL3l4k7S3tWrakzJu3QB5+8GFZtniptKpcDNjYmDYtS0tLmzz2yOPy0jMvyXNPPCuvvjJXps+cISVlpWq0pyqB3iM//8kv5JXnX5GHHnhY1m9cb3mF2shaKkCzs8ucNs+Eg/lHh5ILNWaFhQVSokT72utvkJ/d9wt59EHN97lX5LFHn5Bde/baqhrGbvvmrbJhzXqZ/9qb9mThogtnW71/99vflbkvvyqPP/KYTpreMj/qLidHWbtmjezZs1sJ2ixr94PZl6dkkv4CIYDwjhk/WknYJqnbuVMHwqRk2jrkFz+5T15+/kV5Wetp3rz5Mmz4CJ2wKElSImnvnuXlyZxLLpZNGzfLz3/6c3nt5bny8P0Pyb3/+WNpa2pTJpyQ5YtXyIO/flD7i9b1U89IQX6+1FRVWx3E9oVja09G20VeMiUVSrjaW9tl7ao12oYXyr0//JHMn/eGtUvtwMEp+GvRrbTUH/1AzzRtgrRqGvv3NciP/vNeeePV1+WZJ5+RrTu2yqixI6XfoH4ycvRIq9vHH3pcnn/qOXngV7+RxvoGrZ50luBeLivXrZJ3Fi+UjTourFyzSuP1lwFDBkib9ps6neje/8v75aVnn5e9u/caedugbXL1qlXy4gsvyP33328rosuXLJfN6zfLmmWr5c1X35T6+nq58aM3yTNPPWvxX9X6e+D+B+yLAZOVvA8bNVSGK2F65hkdE5553p543Pvje+Xyyy6TIUpepk2bbCtx9/7oXu1Dr8ojDzxueo56QRfWZ/VfSvXJHvYli5fIQ79+yOrhQa2jlDKdCRMnypJly3WCUKCTxonC/ueyigo5V/vuq3PnattrNn2GVUr6Uqf01wnPDTffJPd88uO2Onjnx+6yPc9bt2/TuuDFyE7Zv79B28wr8vjDj8vO7Ttk1lln6di4WPN9QMv/hnznm9/S8bVBLtIxG6JYt3uHjJ80VicgeUowR0udplWufaLfoAH2SP48nUwuWrZYdtTtsEkpK7UrdFL3zttvyS9//jN56635RkBZcVy0bJEsVtJcV7dTx5SXlRiPsqdE1Ne2HWzleczI9o5tO6zNxX4PIR87ZrR87zvfkZe0zT+jbfXll16yff60sfZ0h71o9YiOY7yU+ORjT8hS1el0nTgUaf+BpLPSev99v9Zx42Xtx4/J5k1bYgM1x57elNZNa32zPHL/I5rPS3LB7Nnye//tD+R3/uj35cobr5HqQTU2Gb9SJ/jLVi2T+Vq2ul075a1FC6S8ukwncsNt7zH99JknnpJntU3P17FwxYoVMvuC2ZKfn5LCggI5a9aZslXb7MH6AzJNZWNrzmKdXLLtasGCBarvcVrXJdKk42xLW6u1L2zZts3bVE4d4238d/QlOIE91bA+QYfOuhNEdlxQIlorF148R7Zu2y6TJk2SGTNmSHVNlW2Gn3nmTCVFDFKBWoS3kcMbtDzK/dEPfiTf0gH1m//+Tfmnv/8n+cW9P5fd23cJb9m3K5HZqQNdS2OLEbeBgwbJgQMHpG6HGnkMsA6Ae/bswVxIZUWl5OmR7Qop7fwYjyoMdTIpG5RQ8rUDBgbiN6thQOaqmmppaG6SPXv3Ewtzo8amw14mqu3Xz1ZsbK+q5rVv/z5pammSyurKsBKVHWAwMBE89iGfvFS+5CWQJiHlFeW2ErNbCQwEACLK1oZWHbRqamtNDwf218ue3ftU7rxQLg2TYBKuaUbXha56CwM/Vy1KAPeoAedrAKQxcOAg24KwecMWu8aY7lUyBolCbOIdOHBQifp+JXIZM7I8OuVFHt5aX6Pke+uWrfKxuz4mt916m5ylBrCqqlLs5SxNixfZ0AHbQUaMGCHVqudrrrlW7rjtDrn26mutLpoaGzSXjD123lVXp2WH94caQt6NSjQoo6Zk9chWCf6xMr9XJxAHqBMVNKX6qD9Yb0SzqKhYKisrlcDusrevkZutAHVKBNFnUJb+6VaRlTX+5Yj6IEgYXFYm6xsOappVUlZWJhs3brJ2o3MCJQEHZbemSyJBxu7k81QPI1iRVgPFag4hIN3btf3TtrJULoRXBwl+5eVXbEWvvKrCVs7eWfiOPQoepgZx+OjhUq2Tuc2bNkmD1gPGi8fcbInI1/pAfB4V88IbdRBWaDqtvqqVtPFos7W1RaVIartLGfmkrbONYXfdbmltbLV02PJB+fJ0YmdbiLokVGlVMfCJdp1ArFm9Vg7sOyA3Xn+T3HrLbXLmrFlSqsSKHkxoawfEsiT0TP+HL0Vke7kF0jOt021bVTbNN1/z5BE5E9NCndSVar+A6O7etVvbalrbXYH2613WJkmLsg0fPkxGjxwpt9x8i9x+6+0yc/oZ0qYToI62tNZRp+zcWWeTxjzqp6NTXnjqeZk4doJ8+pOflo9ce62MHztOCXuBtSHrj1pG2jersjz1YWU2tmlI7f6DB7RPVptr1Uk4YwuyUf8b1+vEUgvG/vb+Awbo5GO3ESruNdU3ye6de1S2DlWEFj6rghSfA9O6goRt1DEofFklpaR+v7Ub+sk+PV++fLmNk3zyjG0eHTpeLFq42NJmDDEyQ4Ka8GZto9/TSdP/+bv/I//rL/9G/vuf/JksWbJE7rr7LpvgdWh+tGkIPW2gpLjUVoB5XJ9pR8+01VbZqhOyIUOGaP9psMf8bKFgFba/ThDeePNN6wujxo028jmZr1O8+ppNcNatXqfkc6fcftvtctsdvHA7yyaAvLNQrXqbpET8lo/erPV1q8yZfaHs1zGeNseWkT2793Rd0x5pRTq8mo4GD86O7VqnkPsObbuQxEa2rWh7IP4ujd/ciM55ipKUgzqGFWtbYvW0UvvVTg1P2y/QtPfv2WdtnzZn6mNY1XTsBVr9t0cnwb/RCdPf/vXfyn988z+sLVx6+WX2RI86HjxksIwaNVruuONOuVXHwEvmXGJfBOnUmSMp7N+3Tw7quE1a2Iy5r76qJHy8PWUJWx/GyxtvvKljTIGt2I6fME5uvPFGHU/vkDNmnimtTDC1rSAT7fjAgXodzygVpYt909GXQK05TiqCUcHYAQgHgyG2Jvi8N5BcrCxWBhjEiktLpay0TC69+FK55JJLZMb06ZKv+Y0fN1YG6CBokczpAKD+5A/Jqtu2S3ZtrZPd6hr21EuiXQc3/QfRS3SqvDhGH43X1KAkS0kHj0chIrjCwkI9SduqL4YIYwXBUhOvM1udveuAUFamxpfBQv34gkBKiQCrka068KTy8kMapiMd4NSgQTib9H6JDvz25qneg4xjkNpaW8OAaKlxtGjB2QX6ZUUrDHQdSgh4E7lIB1lNWuN2SmlJiQ3Szc1KungDQAfFznbSsAQ0kJpKHBWl4C/lsdHe5EH7OtRpGpTZblpcJgeBMGH6KlV+WAllKtGBHhnsZQYNw1aOtBo0npvx+R3IN20Do7JHjfGP//NeWwXF+LIHc/bFs6VY9W55koJmBJFjv9/2Tdvl/p//Ru790U/kxz/4sXz/W9+V116Za3XC/jLli5puVl7+YeSVcNgRByA8FETLDKm2RqqArFkcLTOyN2obqFIyVarGmsfppdruqpSA8oILMaJDT4hpbxPrMahJ01bWXFCUL1OnT7ZtKkawWpu1ntrU0JfZKhfpUt/FWk9Bv9RpICR6pecZJS/NRg7ydbLC57kCMSqzI/ctggkTyvvWgrelQkkTe+F4HP+mkYSNRjrOm3OBybZ1yzarC8pLudu1vPbEguLoNfpGBjwghx3pNm3HjfYIPy+ffoKelaSpnsnbVlXt00rER4e8kaTxra3odfaYQbec6xE9I8cvfvZLeeKxJzX9drlODe95F14g9t1j2p/GQq52+pfKxZcLyLuwuNAmBpaF+tuLKryMhT7ISW8QH7lYnUVFJcXFwV+DFBeWSlFBsRryfO2DnVJ/oEHefP1NWwH+Ce3qP74vv7rv17J9yw5ak03YVPWambYuPb795jz53je/K0sXLpGhQ4fJjTfdKOPGjgll13+R/Lep3LRNJqNMnOhrTGb4RFlrS4tOnFtVhqTKkm3vKnOFtrFOzadVyXOT9q+SklKtC77YoHGVJJcWaZ9mXEM56keamrGds7ILiUQG2kqx9kO+IMFYktExaL4SnQEDa2X85LG2D/rNN9+QBiU0UW5IDq2AumSvZktjszQdbFTi3CJ7d+2TBQvekv4DB0iFTgoYIiDAPJlBr4yxHdoHmaBZ29F0kJv9+U1KBlu0/67fsF54kfP8iy7UusuTdWs32me/eATP1qJWnZytWrpaUjpW7dm5W3527302NkDyr7zmajn/wtk6puYrGW6S1+e+Jj//6X3y0x/fq2MIdfZd2antKaV9wJ4gZWihoUxaIpVHnbYRJmiFhUXa74qNrFJXpaUlVicBCfNPa9tBqzbRz4JtAWyfYGLCEyTGCexECeOV2Rr9p/lR94QlbWwVddt0sEnWrVxrL3gufHuhDB86XIrUHqCbt7XP3vtjHdN++FP54fd+bG7t6vVo0NqwlUHriHKtXrVGdtTtlLPPP1tmzpopB+sPyqqVq4zcMkmZp23zvp/81MbH//z2D+RHmtY+rTvGlgxbTbRQtK9sbw8Fc/QpdLdIx0lAGDy7XTzEDnICnUSjhmGkU6qrq+Tcc8+Vp598Sr7179+S733re/Ldb35HvvONb8tPf/gTaW9u0xn8ZDV+alSzxi/kHggN5AZnA4H62qBtTpsD/jbgQX8SsmHtemmsb5TZOmAOHT5Uxo4fazN+ZtN76sILPLykM2TQEBkyeKitMq7XOHMuuliGjxxme/OmTZumxistmzdukS0bt1rKM2bOsH1thDnjzJlmvBa+/baRcF4QGjpisEyZNtkMGd8QNcOdJRoUqFuTemFq4U4oD99o3b93v0xSY8AKx5ARQ+RCNRQ76+pkq6YVwgdn6RnwyE2XfNRP0+VIul3hc+JmT2WbGoxdamjYQ2mfUhoxXGZqGaurq7Np6V8dOO1RFWmqHysTyvasjEOGDJWRI0ZJncrOo2seB1LPvGCgVsAcsTguXbzUBvApkyZLhRLAqspKGTFsuJLMSjip6dcIIHaKeFE31D1nGCKc3jdZkE3vHDIYqEwYDVYUV69abavBl11+qa1a8f3NIUOHahK0LwKHlqmJ2TVGu6KyXIYMH2wrnTy6m3PpRbZPdIGWbdf2XXJw3wFZsXy5zJ492/YXDtU6mjRlkgwcMMCSZJWcldGa6hoZNmyYGb8lCxdJreqTbQGDhw22LRO0xXw1nEgbZAllpepYHVqxYpWSqo9Kc2OrrF+zQeq219lWjnPOPlf27dkvu3bsNl0Fux7aT9BH6AFMzkg26FXsCcVqNZJjRo2SadOn2urP6PGjbQ8r+9LDP9LSCKpb+04oeiYd6iFb94C+SB4Yd8o9dMgQ2+Iwf/6bsmfvXlvpzYNMZKNgvCEskIJxfK5oxFCZOm2qreoxUaY92QpiVlZTgvpBPMmHPsETmAkTJ9lq1dBhQ+Sss840nVLK1sYWWbZkmUyeOFllGaaTvjIZrP0auQqVMFq61obVaboFSgjjft9VK1fK22+9Ra72dIAnH6zcWbloK+rPdo9zzzvX+vcQrb8pGreooFDWr1svW7ZstRXSKVMmd/WfORdepGPGZnvEy3dXK8sr5UyVd8iwobYnf/TY0Ua2kAUXVBsoWr5OkidPmiQTtO3xQuPMM2eYnNu2brNJJC9tbty8Xm66+UapqalS0j4vlMskDaqjHaBX9jUPGNDf2jxj4Kixo2TG1Bmyc/tOm9xRL0SILwE1K0Fdu3adjB071uqJvc5nnnmmDBo4WBa+s1h1I7JD4zJZoB02NrCavFtWLl+lBLJMrrrqKnlr/ls27kIaBw0arH1guOzYWSfz5i+w7Tw11bU2oVu/bqOMHzdBBvYfZPU1YIC2x1FjtA+GPmGlMfk4CWWzbqptde3atfYOwQWM7dqWqBf0D9kP7Vf/o0ziqW44t8mFnrdpP9i0YZPW0wiZrBPTwdrXp8+cZi8vQmBtkk4+tEStEyaa7Fk9Y9YZtrd20JBBMm78OBnQf4C9HMfq7dJFi2Xi+PFmS5jI1vbrLyNGj5ZUQYGKYwUwuSgV7bm1uVVefvkVueiiOXLxnEtk3hvzpKmhWer31+s4v83s0fBhI+yJHC8qM8HiqUTo42E8VdGsnOFPNo/3hBOJ63iv8K8QnEpoR9+9uc6+QpDo0E4Hecn+e/egwwWiMHLkCB0cxxiB3QuJbGmXdGvajCuz+wod6HEMMKx80ElZnaiuqdS4I+X1V14PWwQgMZqgyaP/CwoLZNjw4fbCEI+7eJTX1NgoTc1N9mH6YWo4xo4dZwMA+zNjmLKychk7Zpz0r+1vj9t4m5mBcLimNXrMGHvLf8G8t2T18jXSoIM2hnbsuLEyYmT4csEgNXJrVq0yEoh8xOEj+7W1tbJ0yVJZunCZrUSM1sEMY7dLSQi61bl9Vu5CIzk8AubD2G2s9La1avojbc/fKDV0vBn+9JPPyDq9z37DoUoYlyxaIg0H600eSygiXqo/b/XzEfMFb8wPezgVGDRIw666oCdm87wJy6PamTNnWrl5M5nVGR67r1y+QloaWqS/DsgbtU72qH7RO4/MeKTJwDts6HDbhzdyFOUfZauKS5Sobt202eIRbsnixUoKmu0xHitM06ZSJ8Nk3LgxGqafGQK+aMDAzXYBJhioiNVvyDR7mzG6bEWoqa2xrQFr16yT/GS+ko4qlXOlGtWDZniGq+6KCotknhp2Hr9i9UYqaRuohge98+tNPDJdtWyltOmEKZJfVmN48Yf2WVVdqcZ1nBpGNVQDB9rqCHsfMTC0G74cAAFjawDkAH3x7V3qiLZLGSEBQwcOkYP7D8gqJdJlStinQdrUIA0YOMAIPo9AVyxVHTe1arXRS6g81pYz9vb8WWecJS8997KSoNWar/aDymrpV9NPyzZftmzQCY3qiPLz0twbr70hHc3tRoB4bM02isXaTtjrycrvulVrZbuSrX79am0PIV+GGKNlZEWU1d1BgwaYPtjDC6HBeDI5WbN6jRLmPaZb2hWEq0b1w9vwi5SY99O2PmvWLK370eYgZu+89U7Yt6hk0Fb2lEGwysej4wmTJtgjYMhintYfkwwmiMOUeCY03yULlxjhIB1IBuR1+dLltgI5Uq/pd8OGK0ktLZYCLevbbywwcr9v3z4z+uO0n4/S/sZqKqtrO7ZtU3I0QNXaabpmD3hK65qvmkxQMjly9CjrEzyuXqhyH9D64lEuJGXwoEE6UdhlJHe0hqON8+LmoIGDZPmyFfLO2wttspLWusKfMYA2w5aDJx59Qjav3aTEpMl0ybhC3fNtYSYu7LmE3LZpu6fTMkImtX1P0b5Rr+SSepugZH2I9jW2DbDi16rthO8T83moW2692fZ3znt1nuqL1hMmGtaEtFHz0hcvxNXW1NrYOFbPqR/64wvPPK/tZ7OND7SVNWvWWp9g0rhP9TBk8ODwtQItz8QJE23F8JWXXpW0TvqZkJdrvIH9B8rbSlY36uSKsXugtgf6ysMPPKTtZZ895Riq9cS3aMmXOmHP9NJFS2XTesaSPTJm9BjVWbhHvbEdi32f6I/V9pUrVtp4b2QSUDZFg47ttKnp06cruRusY+QAKS4utLpbrnVcoP0fUkxbbtLJBRitebEK/M7b7yjBbrJy86WWwToZIj/aGz+Owv7nzg6NwMRN2zovvkLm+Zb36LEj7QXK8UpWWWme+8pc2b51u044d2jbG2aEHJ2N1fusum/avNn2B5fpOWND/f6D1h/YqsaYz+QAfT760KNmA1mBZVvRYCX+Y7VvjiIta8edmtYm6de/n9ToGPD6q69bX2EsttV7Tk4EmgZPk/wrBO8fEjp7PMFac3SjRydIJ2X53CXy1c/8jiRbkpLKhD1hNkC+a6g1srTZE9bf9u+tX78+u/euOz0exWJcS5VUMijYyzp0Gu1YZVUl9gtMa5RIMnuFwJq02QGbR6K8HcoqD/s3Mzwu7EzrQJanA8oI25YA8di6dZutINjjcEVFdYUNnoUFhbJCB8uGpgbbgwTh1ZFBduzYaaso7KOjDOw7Y/WIVY1OJX8QV1ZGeHBdo4MLxJZN+ezVY/WVR+YF+YW2Wsu+1oN7DuhQzCMlTS/Jt2TzbYbNZ2J2bNtOUZW0pextc1bqMALsedq0fqN92oVHixhBVndadcbOAGsKyFYd6rCpQrLTDFhNTXX2V3cyar/DXkFWEBp0UDeDpX6qKftRCQZLys7qCJ+KYpUq7OvLSP/+A7RMe2x/KY94BwzStJW4rF6xWo29knAtH8QSUficzrYtWnatp35KTqtVhk2bdEKiAzQBCkuKjOgiG2/Qs98OssOKEURi927NR4mirfjmJ2Xy5Elq7DcbGWXw5xNS9omknTvtcSxfpoCYYUQhgAO17srUwK5V0qejvOQX59kndPKV0DW3N9tevH279soTDz0uLQf4FR10qEGV1AwcpnU/UuseqBopA/uFeQHI2mN2yOEHAlhpg7zyWZ66XbtsNRISjWHm8fgoJc211TWyQScuO3ZsMwILuSkqVQK9d2/YE6nl4dfE2KtprMPA43StKyVoEydNlI3rNsgBI+Ki/afW9I6+eGyMPOUVZSrzcHsZKd2i5AySP6BGiXqZ6R0iVKwTFyYAkEA+8cQKYFlZpf0KFPLV1x/UOh0ABZLtm7ZaMUu1rQ0ePMTaXwPfJ1Y/I9ja5lilHjx4oD1ORhfUW632Xba/UP9btM9gkOn6aNdezEzx6bgqI4GsijKJ4unFQU2b/jJEySL9kC+SQMjoB5ALJja0kTwl2oOUWEHoIMM7tm81Erxt0zYlAwds/GB8gUAwUavXdNknfECJ7QCVlcniVg3LlhNaPfvah+nYwMuWzS3Nem+rTqp3GVkoVt2zus4Edo2St93aD/r1rzHZmSzv3b3PSDd1SPn4Fil9Z5DqIZFIyTYlzaQnSoSYzJRWllpcVud2a99Cfsa/nUq8O5ioWxtUAqvtfaySJfZylus4WF1VaXs9N2n7bzjYROMQvtl65uyz5BOf+oT889/9s2xdr/noeM0/qyR16LuqH5+G0vIVFaufTpp5dK6TLL7aslPHNfRQpnXMy1d1O6hjnaBrONoefYrV5BKV96C2MybfTfUQQUYX0q62MXDH9h1ycJ+SMr3Dy3LsB12j/S6054RtERms/RHiBcibveBsvaAdDRw00Mh1ieqbvsMLhgf277P+zar1dh1f2T5iT9gMmrvKp83DvuIwGoKuOjp4kE9aHbDJMzotUsJYrnWHHWlr5tNiOrHV/srEhckaedfoRIKnbOyvpX/TvtjLvbdur+qTCYVC8yE/2sNQLUettgHGZOqdff+sPjMhYrxl0WL06LFKpEvUjjTaFw6Y8PMEqFInMEyymm3M1rKQrvYHPvtFRkwSecrFGE0boJ+zYs42LMZcJjtMLPj8Hyu/K3TyTZfivYAAk/Y9IZazw3+J632FE9iTimxjjTipBDamzSqBDqT0PL229PRfWJ/lbk7+inAvAINDj2WvK3eCO0RiI29d0Bsh9qFpdiPkS5pG+PQcediHF+NYelkZTWSgJzZm6D36d/CnTBhpzrP9XmGX2fsxXQYpHlOxMgWB5XaUm7TCaTBADJwgHNS0ZANywC/kk42cBXHwJuUQO4Q4VJeHIu5TDHdibZh2DOFeSCWc5aTN47Zsnl3ymj9HPdNjKHsIiy/XFtKSC/l0798NecSXhoJvNqiC65APLlsv2WtrG+rSSorwQT98IWHClHH2DcX99QfsceOVV10pLz//srzx8muSbu0wuQhPOvbPhFfHgZyzshwKri3WYQjtKNyzpOwY0qWNcOQuZAF5Qx7EsSgWFq/YnqyfZP1CTPMN/nadlVmBDswnm4dFyv6N9ih8lF5PsKDWrgiAbDoN03OTyITJCtB1BBbYwsU8cCEREI94WUp2TsgoI+0t5BP8IyykXXKmLpt+RPd9Rfae5cDr+F1++k/Tj0BvXFG2AKV5Wb1Zj4xtX+Mib9hLjz8utFNChxP+RJlCWI7hZtBpSC+Et6dWtB2Ti/vEiwipWOrxNIvYX+xeVzjaaMLe6ufzS1d85HIjYg/98gHpbCc/zUeDhixMCyZPLExYwcQXhFDZW9bOQl0FP46EC/KiF/yQM8QO5Qz37E72ftRx17W62Eb0VP0tkkWLeXBiISyuxlJhqD70RZg4ZgALzzFc2jXnsY6jrsg/hNE/JG2+ASFE8AztMQTmX7wb8kTfsZzd90CQN8QlbMivu85wQaKAIBc+cQwP6VnrisH0lPEghFSQqDrLi0BcWuCgp+AsyMmBJuQE9v0FrczRJxAaf3fnBaFz2L+uznoownWIY+sLOlgwDBziLLmQVpezAY1zbobB6HDHXcIiF2mHa/II2yWC8YlDWwgfw6pjr60eQ1r4Y9CEH4XSI+fBL/zTEBYPwhAk01tHQYhvPyBh1gU/i8VJSM/OukF6gfRmrzVETu49YgaZzT8b3q40UJQ9yB/8LBV0gcuGDuVV+fSqK47Jm3UW3mJmj915Wlx8tGwxfK4ucRpEQSmyPl2yqF+XTISxgEEBFom8tR6txBpWvdiLetGFF8pNN9wks848Wxa/s1iWLV4WVtU1jrWWLPEwSSlXVxmQ1CQgF4VlakfzRRbKk+NMiq7zbFxWXUy2kCZHSIfd13CHQn2JH/WTTcf0mI0fdJpNW53JrC4rVTYMe/7Io1uvdtDrIAPpI6t6W16ED3EI0+2ycQ0cs7q166iHrAxZveGCfAGcm5+FQT5c8Lf4BFI/qzBzXSkf4vgX8kkFedVZ3REn3LX0D21X+EeyHsJRgphq0APp6lX2fpAv+HW5bHrdDn8NbS7KFPJFRoPehGARLuo6/PRwyDu0YU6yjkM2ffIMR73O6mz4sOFyxowzZd2K9fLCUy9Ipl0TtUfJMaE4jlLmECfKGtMN57Gc3XKF+ojQMw0bfIJvt56zZcw6rskzph+uNW3z4xjyC3rKpqZ/wn3yDroNdZCVT9OI6WRjGEzsLDgN+ozxQtul93eVsyt+cOFf9p45Pe8Kr/Wnx+5MYjyF3Q+OMF3ltzyif5AjuJB+0GvIJ7YtPbEkrYQmfziPYEuAhcxpx6F8pMUxK5OiK8kTdEEix/sJHRe6eq3jhIEqc9R5UldgA4hLdPvJR2DZqUdMkvSzpwHdV3Re/gQJg3+Izl91dh8PhZ6H00NTOxQWW5ETSYEEnNmV3cqG00OQLrqsf9cRhHMGL85yVRX1xqybF2Z4nGeGGsRwlkc3OKfEtrKhF2GlqTtEHPQsL05y0gG5aQUEnzA8xkDZY06cqIGslyL66rFL393aAN1hA/Dv9iOtQ0OHPMJ1CKv/9CTGsdB20R0GWDhOQqRwQkD9HwyJnuqfEEplzEvYHrSKqkrbQtDa3mbf7eUlE2nXujBiqdJkM+hezQnJ4wxWV11XAXoZonX/zQ3RSwxDd5rZY9ajWwZuxZu5gXJTi/4gyBzOchG0bL6aKOnaFYHx4p8dQwp2W8uJXzjnTy7M146E5irKzEkw5jFutp5yEO9Ff0ujK372SKjo1xMaJsocAgWZu1bSzEdd1/2sbw9Z4p3gG67sL8Jky2/3g2f3veyVBeNMw0U9xHSiT4wbfBgTusN1y2upmG88ZAN1XQLOwxvnYj/eUVxWrO23XhrUsSDXcx98NglFOKNfRHTfC0CCCMvHXEwPpxlk0Z2Dnlu0ECO3rD3Rq29MKHuzO91s21MP05Ylf8TAAdlgXbYleip6Bu2Jrjz0T7Bt5p2TTi5Cat1phvrvEi/miRwaKvhn/bpS645t8cMhQC84tUsTJMgUjofqOEY5JLkTQEw17Suw7ytyJy2OPoDYCeNs1AgHnYIbdt0TXV1Vb0cDAMJZNrls3Nx0uHN4aoeiZ5hwHfOwO9m0u9OMiKHiMSKkoRNni5aLbDKc2TXoCmL5hNNcBC/NmVm3ktdcKTgeFi3HoyvtQxBD5xx7iWMDsF0d6uy+he+WIyf6ITjUrzs8COfdPiGshiHdHNczTFc4/LP3LQThw1lWx113hJ/t5fuLWzZukfWr1svW9VukaX+TJNLa+ngrORsSm2EuXGle4RivgwAcu13XvSyCfN3oeR3RFcPSDKeWkp4HGUCMnROoV4R7vYfKGkn+mmKCM/1m7+Ad2qvGNi+MJecxxVwHwrFLP126sENXWjF0LqJfiBnOuuOHf4aYXU9nCMbc8rCJnT2otjvhmHtfr60cINzL5mCI+XX5WdgQjzRCnGzM6KfHmB9+sa93O72nx26ZAjJKMsMKJlf8CROneD9kEk67/LIwb0u30/b11m3bIY0HG/Uy2TUB6x05OjV0yw5yz0G8CjG4iuQ1V2/45+o4+vWO3Ny7zkMShtz7MV1waLI5+ce4WRf9Te/vEqYbK0i4DuUJFyHdbCaGqLtuv97yNPnVP+q2p44DsvFxh4oQ8s310BNLs9sjK5vCEjhx9x5U5zgJcALb59DdU3IHVs66r3oi9rSeCP65cY+ezrtHTO/QNKM8vcl0NPQeJzePQ/PpRjBD3Xd7C5ebRm/3uxEG1+COFqfnnSB/72GPDzHfo+F4088N1x3+UB3HMEbYlGnAd+Kj4rhaGBHD9oaudHq4E0FvaeWeB8TyHFqugN78ekN3XR8buXkdyR2O7rSPHOZoyJUt6uBILiBXnuAObVe93Y/xo19Ad5oRufF6Ivdez/uH3zs87d4RZYuud2TrkScEmvzRwh6eVrdM4Nj9MJtXlwt+uWl0Xx8tnYBcWeJ5rt+h6E4zhIn5HxovukPRLe/h93pHd9jccgQZ4r2oh+jf7UDuOei+H+LkomfY3nGoTL3H6ZbtxB2IR8f7ByewDofD4XA4HI4+BSewDofD4XA4HI4+BSewDofD4XA4HI4+Bf8KwUlFj702Pb5CwCdisrvJjwjfR3Ns0GTtN9YzGQk/QuBwOBwOxweLdCLtXyF4H+EE9qTicAK77LXF8tXf+h1JtCZU2eEzLr224djGHceEE1iHw+FwnC4watqZsF9kbNJ/X/njryiB/bQT2FMMJ7AnFdnGGpFJyqYVG+Ub//QN6WzjjcrsO5W9teHYxh3HBE0W4hqPDofD4XB8kIDA8tPr7frv+ttvkCtuvDIQ2K5vbDmBPdlwAntS0Wn/gH1gSBt0R3O71O3cZb+jzwe+HQ6Hw+FwfLgAT+3kF92SIpU1lVJWVd69AmtwAnuy4QT2pKKXxpqrXde0w+FwOBwfbnRx1V44geOkwQnsSUduYw1Aw7b46pp2OBwOh+PDB7Xxh1t/0Luv48ThBPYUw5XrcDgcDsd/bTh9PflwAnuKEZTrKnY4HA6H48OKQFAP//HbCCewJx9OYE85UK+r2OFwOByODzegqU5V3y/4L3E5HA6Hw+FwOPoUfAX2fYGr2OFwOByODzd89fX9hBNYh8PhcDgcDkefgm8hcDgcDofD4XD0KTiBdTgcDofD4XD0KTiBdTgcDofD4XD0KTiBdTgcDofD4XD0KTiBdTgcDofD4XD0KTiBdTgcDofD4XD0KTiBdTgcDofD4XD0KTiBdTgcDofD4XD0KTiBdTgcDofD4XD0KTiBdTgcDofD4XD0KTiBdTgcDofD4XD0KTiBdTgcDofD4XD0KTiBdTgcDofD4XD0KTiBdTgcDofD4XD0KTiBdTgcDofD4XD0KTiBdTgcDofD4XD0KTiBdTgcDofD4XD0KTiBdTgcDofD4XD0KTiBdTgcDofD4XD0KTiBdTgcDofD4XD0KTiBdTgcDofD4XD0KTiBdTgcDofD4XD0KTiBdTgcDofD4XD0KTiBdTgcDofD4XD0KTiBdTgcDofD4XD0KTiBdTgcDofD4XD0KTiBdTgcDofD4XD0KTiBdTgcDofD4XD0KTiBdTgcDofD4XD0KTiBdTgcDofD4XD0KTiBdTgcDofD4XD0KTiBdTgcDofD4XD0KTiBdTgcDofD4XD0KTiBdTgcDofD4XD0KTiBdTgcDofD4XD0KTiBdTgcDofD4XD0KTiBdTgcDofD4XD0KTiBdTgcDofD4XD0KTiBdTgcDofD4XD0KTiBdTgcDofD4XD0KTiBdTgcDofD4XD0KTiBdTgcDofD4XD0KTiBdTgcDofD4XD0KTiBdTgcDofD4XD0KTiBdTgcDofD4XD0KTiBdTgcDofD4XD0KTiBdTgcDofD4XD0KTiBdTgcDofD4XD0KTiBdTgcDofD4XD0KSQ6Fdlzh+M9QptQZ0ZdOpwn8tQxN0rY3cNBeFwMr+GIc8TwfRnZcnZ2qFMdHQa9b+XmCLLX6M/0mNLr03GeiZzUOeWifFH+LGJV9vC2slCmrjby4QDDaDqdlkwm1HFeXp4kk+9n+VTR1r6ybc2uaUfxHsdsu+qqgyhfrCxHT1CvHR3oM9RpgrHqqEDR6BsXx8TsOGdA91H/9G3Sc/07HO8FTmAdJwZrPjpQZ9ok3bhXx+y05JXW6mhfpK0LA9nL4MzA3tEq6eYGNfhtkl9cIlJQrjcgNSFIn0SvPSkjne0Nkm7ap3asVa+zhk0NoRVVSY+kVE92VIOm9zr1TmeqSJKFFZIqUr0kCzTg+6OYOBzEIwa7d6NNOVqkgzrvaJJEpt28YshEUstAEjmuU9tDJ0Y7r0TrvEYknzYSbvfE+1PaE0fU0549e2TNmjV2zM/Pl3HjxsmIESOM9Jwy5CqONpVplc62g9oVD+p5h8qm7UrrQTubddGEThoSqQJJ5hWKaNuydmVk6gj99CQCPR2b/J1+2Lt3ryxfvtwmI9OnT5eysjLz7+xSvrZzzrV8SWvMKFodk4jWRsm0aN9vb9TLNtNzMr9Ah8ZSHe80He0HNuYlI5EF3ek6HI6jwwms4wShzUeNpbQckF1LXpOWg3tl6IwLJdlvuLauI6yyMbg37pO6ZW9Lc8NeGTbtDEn1G61hA6HpkzhiL0pL694tsmfFfGnfv1vyVFcJZROJzrTkm6HLcCWdaiAheKzKdEhK2pJFUjV0rNSMnS5SXNm7Hk8yGApwbW1tUlCgRCe7gtg7+VDCrcR8+/IF0rxzg+QridUSSFLLk4cxp451MpPR8mSUKGX0LudtSqoSJbUy/Kw5kqocoOlAAA5HX2kG6Gb//v3yy1/+Ul566SVbga2qqpJLL71UbrzxRikuLs6GPIVQGaxPpRukYc1Cqd+0RFJtLdIuBWHSkKSFJSRP+2NeQaEUVtZIYf+hkl87VBK0LZ0ssTLIxOlU6p2VTFapaVt9gcxSt0uWLJH//M//tHr8yle+IkOGDFHZ9V621aIzwN8E5JV66GiQjv3bpW37RmnatUMa6w9IuqNd+1NKCoqKpKy6Wgr6DZWCgSMlqX1BUkpkGSstodgbTn/9OBwfNE69VXR8yMForgN3e7M0bV8tB9YvFGG1kRU5ln1soO/heKzWUS/121bJvvWLpbNxt/qxQsH9DxkorhK5zo5W5flNthrToS7TXq9GbrM0rn9Hmrcsk0zTbkm3qh+rNq3NIm3qOtrUiPL48b0DI3w8IBzkYtWqVfLiiy9KfX29+eF6kg1LkXSVrCWUlHS2tqjszSq7Gu7Wg9JeXydtWrfNGxdKx96N0qGTm/a2BmmnbO1N0qlO0lrfZvBzTfXxyXo6IZKcJ598UoqUnFx//fVy66232mrdqVt9RU/RRWg76WyVpt2b5cDaRZLevUG7WbMSJ62b9lZ1SmhbDiqh2ix1S96QnW8+LU1rF0hni/bVznZNiZX/SMtOPiD5b7zxhrz99tums76A2CeY0OFy5Y5tNhzRG/1UyatO6tq2rZQ9C56VHe+8KE1167T/tEl+SYGk8pPWF3avXihb5z0nuxe+Km37dthEr7suSfHQ/nY6oK/UmeO/FlJ/ocieOxzvATqwQbLa6qV5wyLpbNgr1WOmSqKin06PjrICq4azYdNyyTQekNrRYyRZNUTDF+pNHj2HwbK3VZqj3TsRkC5pxmNPvOd8NXheXkoqqmukethIqRw+Rt1YqRg2TMq0uAe2bZbiyn4y6LxLpGL0VKkYMUnvj5NqdcX9WSHjUS96PHq+vcmdK/ORypULSOu9994rL7/8spxzzjlSXV1t/r3GUy+8yyrKpWbQEKkaPkrdWKkcNkrK+/WTVMMBI7T9Js2QqmkXSOWIiVI1crzUjBgv1UNGS7JigLYcLRcrz91J9vh7KFjdfDf67y181EPP43sFq4pPPfWULFu2TC6//HK58847Zfz48dK/f39JpVKH1MHJAenlakwdadMHlbC2bl0jzTs3ysgxWhezLlGdT5KqERPUjZPKoaOlYsAQKcgvkIa6rdK8Z4eU9BsgqbJq7aYFmmpS/50sOQ/FW2+9Jd/97neNCNK20A3I1c/R6uJE66lnPRytLeXmtWvXLlmwYIGtGp933nlSUVHRdS9h6z+sWmt4XKZNOvZtk92LX5OG7eu1L4yQgVPPlqoJZ0il1gN9v2LQcCkqr5ZWHQLrG1ulqGqAOevjIdETQs9yHi9y9RHL35vOc697u+9wvJ/wFVjHSUAwqjxCYyC36+zhiE7/2KP0uEprA2Hvg2EclI8GwjAIHyss9483vdywx4wTRT+sCNrF2O9WPUykdqxIvwki/cfrcYwom5CWRKG05Ov92hEiA9Tf7mm42tEi5QOlU0k9muopC47y9lbmY+mht3sYovb2dtm2bZs0NjZmfYN/71D/lDLwsv4q7yiVm3JNtmOmZqS0FFVJS6pE0loGK6vdV9dvvHTqffb/2ZYJBdIEp2mqbD1zPFZZeroj4Vj3cxHDcUSfR0NDQ4Ntt+DxcmlpqZ33zKu3fHv69YwTcWg6vaelytQ/kKmUdLD3taRKpCbb5nA1tKuJkhg6XcomnSc1Q0ZIe/1ee8wtrIhb3z1U88cnT+/nPXHgwAHZsWOHhaFNcewtfPQ/2v3jwbuJn1u/x6rrbgRdRa0blMC27N4ujXVbpKKmWqqnnCvJkWeq7seJVGofqR4jiYGTpWTShTL4nKtk0PQLpLhmkCZw+Ep9rpzx/Ejl6enfW7jjRW9p9ZYHOJ58jhTX4TgZ8BVYxwlCBydWVNsapGHDYmlvPCDV42ZIokKJjb0kkvumbdYRvvWA1G9YqbazQWpGjbcV2IONbbJ9+3bp6EhLMS92KRj8MHiRSHG9b98+2blzp/mxMsI1L89wDXnYvXu3rFu3TtavX28vYbDaw+PdnohpYrQOHjwoGzdulLVr1xqJa25utn1vuW8ekzerlORNHNIlL+Js2rjJZIHARJm7AVFTPdieYI5cp0X2bZe69WskVVop1ROmK9Gt1XvFGjxfXV6W4HWnE+WkbFHOlpYWKSwsNBcNBWShrq7O7lFu5MwtK+F4pIuuIa04wlOuefPmGYGdNm2arS6SH+Fz93KSUjDa6pDRyqUy47Q9ZNoapXHrOm0S+6RsyDjJG6AGPFlq7aFTw3aqLpCHx7ObNm2U1tZWKSgqlIb6BtmwYYOs1/Ihe0lJSddjeGShvJSbMMhFuXDUMW2Al6dwpM1KH+WjLKRDejH+pk2bzJ+wR9qPSfjNmzfbi1mEJ/24fxOZkBl9sUI3f/58y2v06NG2QgehRa7ctkNc2mhsl1H31BttNpJe6ofyEDbG37p1q6xYscIIYHl5uRRoHL1h6Xb9ZQU20yLNqvf6uk3Sf8gwJas6oUip3q1u0GO2DeYlJdWwSxp3bJT8shopGjRKEoUVqpNm2bJli8mAbqK8+CEfeozloX+gT8pCfdCeiBf1E9si/YO2hfxstRgwYIAMGzbM6q+pqcnKT14RuenSH9E7eZMuR9CzvtAj+SAH9YueSIc66Fm/yBXbO2XDUU7aV8++AgjHCiwy9lyBzYVNxNsbpWHzKmnavl5qhg6TohGTRAprVO2MPfSRrNPrVEmZFFX2s5c0O7MvcSUSSvYyoQ2QL20P+Whj+KGr2B9ygTyUKeqN9kp8+kCsD8JQRvREeSkPDn1wL96nHgmDHsgPf/oK7TXKwPgS+yH50iYJB8gTebkfZQeMH7H+HI6TBX+Jy3GC4NFlq0jDdtnx/M+kqW6zjLrqY5IcOiVrPA8fcHlbWg5ulK0vPiyNu+tk7GXXS2rULFm9Ybf89Cf32UrWnXfeYcYiggGSARRi8Zvf/MYe2X7sYx+zx7XPP/+8kYgLL7zQjBCPwBnEGUwZpEnvkksukVmzZnURsThwE2blypUWhwGX9LmHsZ40aZJcc801ZnABYd955x159tlnZerUqfaI/bXXXrO80jr4333X3XLJpZeSOAJbnMNBd1Njlz4osvYNWfbMQ1Lcf5CM/sidIqUjNZ7Kp1G7OqWmhTwYFwgALwohJ4QI+ZGT/ZaXXXaZDB061KJQnscff9zINi8SzZw5s8t4oEOMCvcxQLNnzzY9P/fcc2b0KAvkbOzYsaYr9Hf++efLtdde26vxPAzsu6zfIntef0Iat62SwWdfKUWTVScpvqbQvV0go/I36eTl377+damorJSLLr5E3nzjDVm6eIm0KPmALLCflEfxGNAXXnhB5s6da8YTo0m5kZE6heggN+GnTJlixhdy+f3vf98M+G233SZvvvmmPcYmPjqgnRD2qquukpEjR1qcCOKin6VLl5oOAenU1tbKmWeeae0MGX76058aacBBtNA/bYJwtJuod+Snfb766quWNvVJ/fGy11lnnSUXX3yxxSEsxIstCdT1lVdeaWSDeNQZZf7CF74gk1TuAB76A20w9MGOfbL3zWdkx8KXZPJZ50ri3BuUN1VqMNoijYpw7NM8KK3LXpSt77wqVWPOkOqzr5JESX9Zsmy13Pez++RMlWnMmDHWztErct1www0mJ+2BMrBPmv2slI1+AbEZOHCg1du5555rbYq+9PDDD1ufoW1BxNHPoEGDrO2iL/YLjxo1yuqECcMrr7xiZaeeaPOx/9JOSZcJYi6YLEAwYz8kndgvKAP9fsKECVZ/6J3Jweuvv24TNXSK7NxDXrY2kA9tjjRwixcvlm9/+9uW3u/93u+ZzPh3wRq0/uls10m56n/Jq7a3dfDIYVI+6wqRMu2TKcYc7TvWBzVuNj7DBDVIEkklrzy9qtdJ3OvaD+a+OteIZNQB7QPdxv4aQXlpI9QHeqZ8cWyrqamxsYH2is6ZMDzwwAPW7xk7+VJGbllo6/SzhQsXWts7++yzrc+jg1//+temR+rgkUceMXJNPhdddJHccsstVv/0AeqBto7stHHaDvpEbuRAjw7HyYKvwDpODIy+2RXYxvWLJNOwTypHTZBEZZXe4HGcDuwQ1k51HM01ibTskeZNq6S9sUmqR0+UZOUQTSrfBlAGx1GjRsrgwYPJwQbZONBipH72s5+ZcYScMXBi8CCxGH/iMuhDTiC3xGMAhvAy8ENWGFTxh4Rw7+c//7kZTwZoCAUGFcPGYIyxJi0IDwM25BGyF1enCEe8oWpkJ0ycKP369ZMEn8VC3CM5lMZLa/u2yK71KyW/pEKqx01TlqQ6s1WanOAqJ0YKo/CTn/zEyNIZZ5xhcg4fPtz0EIkZn23CwGOQCQfhY/UMIl6pJBH5Mfi8cISDTFxwwQX2aaC4Ikl5MTwYPoweRhCdkVesg6NC2wKfcmressYeUZcPGSN5/ZWYx082EYQ/mlRra5v8+le/kq1blACq4V23br2M1DJATFnNpDzIgsHE8EKsZ8yYYavD6DmuTLLqxKrb5MmTjWBARikn5AljHXUEoWHiARmgnLQb0icvDCvlQw/omXbIaiEEeaLWK/ojD/KjXWKUIQvRcGP8IQTkgWyUAd3RPmibUX7Sg9iiW0gdJJD2SnjSIjwEixeeKANkAqIby0ZbQ5bQPsI/Ay/EZVdgW+o2Se2ggZIYPCronP7JCi0kK92ok8ftcmDdImnYt0dqxs2wt+FZFdyydZvK+aA0qA6YFNCm4ufAKBf6gPTdd999ph90RltEP0x2WHVDp5Ae2gv1gG4AZWcVjzSoA3SDDkifdMgPksREkn5K+6bdco+JBOmSHnUVJ1LU1TPPPCMPPvig6RI5mGDQXqlzJnKs9KI70qE8TEwee+wxk4c2HtsDskGESZM84ueySPeIK7DWkO0PHVWdEsf2JtX/FmnbVyfFKmequFAkn/FA68deUsURP0tms/VHmi3NjdZmf3P/A5LSuEwcc9s6bQE5mFBHQg5RpD6efvppS4f+wXhFHHRPe6Vu4piGvtAnRJQJRy4YP5no0Sapbxw6Zwx54oknbHWWlzzpB9QN96lnHHp+9NFHbfKFbNQf+qW+GSdJk7Epjr/guMYTh+MocALrOHFgPCGwahQ79tdJYX6hdKrxbd61TVp3bZU2HdDbcbvCsVMNbHLHOmnasUlJZIdUjZuqBHaw5BeWq9FuNIOBwcHwxMdfOMgGhhPjfsUVV9iKSSSVDLwYHwwSK27cIz4GgIETAgPRwcBFMofRwmDgzwrjddddZ3EgvhhDSAkrQpAV/IiDIYFMYsjJixUkSOAUPccg5OfxuDarl6MBQr9/s+xat1IKiiulajwEls9lBQKbC/KMq32snHzkIx8xw49MGFvkZPUFQ4yBwGCxaoVxo9wQIfSADll5uv/+++2xH7LjD5ElPeJiJDHurPSxasJ9iBOG87hgK1H1SqTWSFsksP0gSOgla7iyBWxrb7P63KbEqVgnCNTb1VdfbYYPg0sbwPBBbNA9MrHSjIGmniBWEFQmIUwwIqnHQFIGiCN1DG6//XZbVSIexhcDT72jU+qROiYPJkg//vGP7frzn/+8rULRFmI8yCs6R9cYcOLS/qgj6uWmm26ysNwHEC+eGDAJ+fjHP24rVtQbDtIKOWByBSlBz7RxvjuKH5MkZGaFC9JLuSF+KSZgmvYhzSS7haBl61pp2bZOaqqVaFVUKytRwtq0X9meOq2P9K5NsnflQtm1eYOU1g6UykmzJFUxSOunQHbs3GX1ARlBj7Q12gD5QjYBEx9WZtEF+qE/xfqArEAa0StlwdEnuA+hpJ5oT5/5zGesPLQ5yDnEiUkhTxeo+7vvvtvIInlwTTq0A0guciELdUVbZWJA2nfddZf1YfKivqgX6od6pL5i26e/kyd58KkzwhEHWSIBh6RSN7SjoxLYXGT9Uvl5kmxvloZdO2WPtj0+o5Vsrpe8lgZJZvjSChMJyGz35IMjXypZoOPKL3VCV1lVLV/Utg7JjP0cPdLOaJ+Uh3JFQgp5pb/zmS/qK7ZVykV75R5HwjNOMnmjHaLHWBaO1APkFj2jF3QAgYW4Mhmmr1D+z372szJnzhxLn7pBT4yJEFjkRLeMichNXdCXqT8WCYhjE7DedOhwvEsEi+JwnBAYjBKSVIKSSLfLtuULZd28F2Ttm88FNy97zJ6vmfe8bFr4urTu26nh4+eUOiUvn5n7LOnfb4CtHMS9d3Gwg5AxAEPQeByFUcGQMcjiGNTxh4hBWiE1EAnILoYQAwWhIw6rXhhaBmwGWYwFYYlD+gzEPDblnDwZ3JGDfIiPESQOgzyDOoMyK2iogvvHhBUpN1zvAzqEBqMKUYNMYaDID7mQFQMCWUcXq1evNrKKnJTljjvuMGPG48WHHnrIyAXfK0U+HrdD+IhHmSCLrDqhbxxpcw3RtXKdMEJZQ0sJYEEK480kBUJz9qxZpkfyJU9IKIYPIgc5RF70HmVF9+iDsvbUOWWgXNQzesOgkjZx0R8rmbQTVqni407AY1Z0SDjaU2xHxIEQ8Ugasol86AaH/OQT00Y2/JAfksWKFXJCCrjPChVhIeCQKJ4EUHcQjCg3Rww/j+0hH8hOXvgfrX3xHd58aZfdK9+RtY/8TJY/fp8se+ynsuzxn8iKJ38mq156XHZuXC/l/UfKgLMul3y+v5zk+8t5ktLJFw+yKTMEBQJCvlFmygFRQT6efqC/WB9MgiCzlJP6os1GPSI3OoHEoxfSj7qjPEwyFi1aZGHpq5A2wkQdU+/onXD0X/TEZJU4+EHGWK1kUkI80oFMU++MB6QDCYsykRbtjbLRj5CNstIn0C2ElTIcE9aQY4tWl8iXRHGNlE+dLUPPu1ZKB4yUpgMHZMP8l2XVs7+RjU/8VPa+8GtJL39FZO867RKNGqtD42as3b3xxjw5sP+gEXHkoRzIjowQUvo55YhPfmi3TOY5Z4JGm0ZfhKfOIPu0HyYN1Nl7BXUE0A2TfGSLeiYvJjxMThgj0TcEG//Yzhlf8Yc4s4J7tPbrcLwbOIF1nBgiG9EThqWUDlpjz5wlk+ZcJjMvvlzOyDrOZ2Td1Isvk1HnXyil/QdIksftkdwo8RqopIHHrHU762wVCuMeBzxWpliBwFCyqoBBZHCNAyxGC/9IeDniMFQM4gAjxooN5IIVAQwa8SGzGGcMJAYsrvhAXhh4MZjIAdEhfFzVwCBHIA9hTuYA3dLSasQbeTFm6ASjhawQa+RllYhy8kib8gCuIVqf+MQnjOD94he/kP/7f/+vGXyMGo70YljKFOWP4Bpw/2QjpkjaGEMMNLqOdYk/xpp6wRDyaBSyjX8km/hDAuOqay6QHYchZdWHuISJZcUf4gIwvITFnzYEcSVfiD8r7bl6iOQy1nMkBrSDnvWOYWdlFnlJAyNPvdG2aGOQW+oO8ksbo10CwpIWBB2CSL4Av1iGY6GyolKGDBwkgwcNlYHqhgwZIUOHj5Yxk6bLlIuukmEXXSuFQyapBYgf0Q99hfRpL5DIXNLDPQgs+mDSRNsibAT30SckH9LC5JO2iD/liXWGnqL8lId7pIseIOxMHMmXMDEc19Q/7ZX+z1YA2ga6pe1Qv+Qdw4NYN7F/EocVRPRJm6Gt5cpBWdB33NoRV+7fFXjCoJMB9hMXTJglQy+9USZefqNMnTVbhgwdoZP1tNRtWCvL5+pE/oWHpXHlfJG2/RqNvbn7VGdbpaiwSFq1HdBG6N+0F56uMNGmDLRVyDXjIuVHVsYhSGKsj9z2Svlz66kncnV2JBCGNJikkE9uX0J3EGnqhf7IOImscRyN8iMv7Ry90haI53CcKI7csh2OY4AhKAxD4W9GB7SWRIF0DpkgMu4ckfGz1V10uBun/iNnSltJP2nnjXuLHwZdDMvM6dOlsCiQNQZHBkoGbwZFBmRWh+IgCriPcePxaiRlPQdIiAlpQyriYMqjd4wsg+wPfvAD+Y//+A/593//d3Nf//rXzY/VDQhwNMDkicNgIkNuPnFQj3KdDJA/L3ZAYHnE+q1vfcteKvnmN79p5xx/9atfmeHAmJN/NCyAFVgeBXMNUWAVkFWUSN4A93rq6/0EekT2KAPyAwgddRVX62K5cokVdRpX8nJBGPxi2iCmz5F70UWDDyADPOonzg9/+ENhh9U//uM/2j5LVo9oM4SPMtKOetMd91lVo73Rxnj0Tr3Rrv71X/9V/u3f/s3aGY+0AfL2bGOUK7esMc+jIaMkqj1ZIPkjpkjx5XdI1aV3Se3l9+jxbim/+E4pPO8mSYw/T6RqhM4AeLGOrR2k22n8C0cfgoz0LBdtjPZIP2MC0BPIB3mlTigzZIs0otyc57qoe9IlLKuGxO9ZTvo89UG69APaBXGoC3RE/yStXORex7qI4Ukrt865T/jYVkif8McE6kHUoL5wwhcFWNFOav8qHSwyZJokz7xGKq/5pIz46G/L+Ktvk4Ejx0rb3p2yY8Fz0rJ5uTaiZm0nSk5bta+r3tji841vfKOrf8dz9gdTL8iJ/JSH/gHpx68noh576hPg1/M+Ooh1kgvu4xdXXHuCuqO+mdzQTxhHkRe5cVyzNYV6oi6dwDpOFg7t9Q7HuwYDUXRJSbOaw2dj+AJBqkKdGklcXvZoTgf3VLF0qPFMq8XsGsoyaUnlpWT4iOH2OIwV0PholRUxHp2xMsRKSc8Bm0ERMhERB2UGSgZfrgmDyx24MZpsFfjzP/9z+Z//838e4iAvf/VXf2V7y1iV+iCA7Ol0h5EKiBVyfu1rXzP3P/7H/+iSE8d9iDqgbJQdgw/5j34Y50jCohHBP+rk/cSx8kW+WKe5Bi+ec4zuZIJHzH/8x39s+1mpd9ogL/r9wz/8gxno3C0HR0PUMat6n/nMZ6zuqLPeHHs44yoi8d47NL6RKO0f1gf5qVh1eVVZxzX9sjh80qxL/4cee+oUuaJfT7KYC8JxP7dee6vj6McxTjY4P1LY6N9TrtA/jk6IuEe4mA55xZXZXMR7R0vreGA65YcJ+GGWPK2DfPRfLVI5TFLDJ0v/cy+R4WPH2S8W8h6AtDbp0NehZLRNBg8ZIl/96le7+nhPRxtiiwFEGzlxUTfvBrlljOfoCJc7aToWiEsfJR7j8pe//GUbi/7sz/7MZI1tHtn/+3//7yY7JPy9yOxw9IQTWMd7BkOQmjX9G51e22m4w3/21MWQOmplj9rs9LwrKGdhQ6SdVtWE/XQQV7YN8HiV/W7M8nmRInf1EDAYYsS4Hx/DxkE5HiEdDLIQkmgs48odAzYkgz19PR2PNXnkeLQVjlOJwsICW7mgHBhdHpdHuXo6yhBXoAHklTfaeYmIVTMewzIp4K1+Hj1G3Zy6cuSm++7zYMWNVR/qNJLwiCh7LiF/r+hZftoDK9ef/OQn5b/9t/8mf/Inf2KTA+qBt9h5GYh8owxHAqtVEA1WySgH7Yj9gb056o42Rpqxfb43KKmJ/Ynh3b473MNRF9kgFiyCH0DIXvdWNspPOdiqQt/sCeogrrwyMaTsvYGyxfJRVvozdc22AOL2BLKwkk17Jn/CxrZBeFZLybs3maMfedDfaSus3hI+V8eEo06RgXQJe0wQneRxKNL28rfrKfv6+SntOMnRgEzsWZkt0MlDaX9J9RsiKa0LfoZZ0u1SWVEuZaz+6nXc5tDbWITjUT56Q0b6O2NbHPeOF7TJnvqCiKKb45mcRcT6o66JT73Hds52EhwyxyPjUNR7b/XlcLwbOIF1nCAYjIILHDQMTrn+hzgbvHpxgcnqaUINeYGMHz/ByBqPbXnED5HFyPMCQVw9iQMgRwZP9oSx9y7XOHHEKLH3lcGWPVwYP8hFJHyQOghdTyPIOQYSwwlyDR7oeX380Dxyx+4k6ZjygssB8kUCzZ5JDDlAtuiQGwOGnFF+DBQ64w1+wEserAKyX5A9abz1jTHPBfrBYcAgKJy/Z1AcRLF6zS1YdwGjrIDznvqEMLHfkjrgpb5ImnLLyD5m9jaeCHLzJU2MOHlAZCELtDm+BsC+YcLyNCDq52htAPlpw6SJ/PGxNHFivFh3uWWL7fDIaZtisy4HSqCMvALi0q6oQ3X8KEZGL3vEyK2OQ5ArYwT9hRV+9jGy5xE5c4He6EuUh7C5BDau6nEvlyCRBy9fkS79l7qkL+eCOLyASH4QOYgb9cI+dHQaX17MBfpDp7Qd8oAUEp42H2WM7QiQJ/7sL2UbSXyScUygoqimTJu0HayT1t0bpbNppyaqfTWjhJwvjvCylv3cr9Zza4Ok6w9oXSQkVVSiyslTYlet+Q6SRpWPPaS0mZ5Ab5Qn3otysjWIffKxPmK9cc2YENsWdcDqJ/68vJgbnvKzBYD+hH/Puuf6SH4sCrAnmjTpG8gIon45kj51RRlivJ7pORzvFk5gHScIBqHgeHQWHknSrPSo5IV/uWG6HVsHgtORrNtfWQ+X/fv3sxevWO3hZRoG6fj9zEiscgdAzhmA+XYrg3lcaWH1lvi8QAMR5I1m4kMIWRVgqwIGkP1lGDDiMQBDekmHT9RAHONgD3INH/nmXh8ZhMmG6woOqUjYvsV4/9C0WHVNyfTp00xWygDxxMhjDDDCyAnJZ48ZhBVDgax8tYCVV4g5H9Xn81OkwXYJVkEIj64iqQKQegw96ZIXBgnCHA3S8QLD3Kl1z4peIraFHoh1R3mRtzcdIg8v9CETn8Ri5ZP2gDzIBanhhbbc1dnjr4/eQVtglRWdUn7ywpFHnDwgV2yD8dhbnqzkxW9homtWw2mP6Jy2CVlinzd1yvaYSBwgGhxj2r0j5Nedq56pDIiRiSutxEfN6Jr/5jSA+UXHn4CcUz3PucgCosmTEUgRe3rRVWwflIU96tQH7Yu91pHAohv8mIzRLulXxKOv0V7p0zwdQC/0Q9KN/ZD65mUg/NEjYwATUFb90C3kiXu88ERbJw7p0EfQd/yCCKSX8QSZ+DQefTq2JeqWCQafB0P3lDGuFEY9UAbOOZrDL9wJDsW3a1obVsq2ec/LvmWvS9u2FdJ5cItI025l4Xv0uEs6922Rpk3L5cCWDZIqKZfi2kEiBUVSWlZuX02orKywth6/hIB8OMrGxJN98JQNGdAH4xmkkK+M5L7oxRE9oxv6CWHQG2MgoC8xCUHPONofeomTwZ5lj+XvDfRPdEv9kh/tANkZR2jnrBAjO5/8ik9+onM4TgT+HVjHiYNHZzp4712/Qpp1wOrPT8lWDdRRME9db0Y4bd8K3btJZ+tqbAaMmWTfgQ2f81EjoSHy1JBg0Bl8+XEC3gxn/1T87mAEAzMDNYSLe1xD5FiJhYTw/UJ+yQjSwXdGMXpxBTeuxDJoEwcCyyoQ+WFAIL68DcxLEqzcAu5zD+OBocMgHmlgPzIoYYfI/h2yZf06SZZUST/7DiwvKiFbbnrh7W5kZXUkfjqIc+RkdRrDg/wQDFaoMBgYNGTnU1+svmJkkJNVQQwNesWAQQDQLTrBRWLISgoTgkisWGE5PqQl09og9ds2aFuol/JhYyW/33CtW14Wot66ywYRgrxx5FNI6DQXyIvcrDghEyQDA0g9oQeMMCtvyE0YjDkrnsQjTYgAxpnVU3QT0wSEx+BTTuqRR56kA7Hh26KQKHQM4SJv9Iw+eUTKp54gApAd2hvklHB8yok92hFR34A2Sh3R1tA756SJwac8yI2OMerIRVnZxkC7Q64odzfitRIN4wHaBztbVO8bZf+uHVI7eKSkhv7/7Z3ZchxJmp3/yCUyEzvADdzBIllbV0/3aKzVJZOZLuZGJmlkrXeYF9FraGyuuk2meYKRNBe6kkYyG00v6qnuKlYVd4IbiC0TuUZG6pzf05EJFMECSYCFrDofGchYfP3dPfy4p0ck6mxSwTayexhQvpy1teew2f/wOsHXYbFtjMP8cuaTNqf9mScKcn6yLFgPadf4jubon2mnX9qadqIftiNurHsMk3Wc4cZXxrGOswwYLtsh7cxXqbE+xzWU8Wt+xs8yYpvnxkEB2zzFK+1JO7Kd0n28P7DtxLKguGJd4THzzfTHcmNaWU4sA76KjeXvIP6RJbmHQsh7lje3rPF81eqP7lln7bG/B7u99sDazx/YzqOvrH7vC9vEfS+zki3d/KlNr6DdV9E2iynssIT0Zbhvfel5oA1oC6aXYjz+IhvrKtsKB+EU2tFuzFOcjWX5sG7xPMuTfuietmOeeW9kfrmxvsXBFcuMAwAK0vgmCopRli390za8F41DN7QLByMsB6aDZcu0Mx8Mm/7ZdlmfY1sk36zXQhweCVhxBFDAdqy9uQblmdrC1Q8tmeVDT5wJepmAxc2+37XW5hacpLZ06YYVps9A5PDXmngVnUMhzEBRRPCGS3HAdwlyVmv8phcFLG/YnJ1hJ8OZFXaWcUaVM4+cheQ13nzZqcVOlTfTOKtL4cf42Aly9o0dHuNlpxk7Ls5s8EZMAcNXP+3v5A8mptnVBj5gs+a2bdcbVllAJ371plmZP7MYxHUgzIIwneywmE7CTorp5Mb0UABQMFCIUQiww2OnRFH0i1/8wj8Jw2InxA6N+WVnSDFL4US78hyvsbNm/tkJMXx+Vcmv0Q9HbgOUbQ9CmL/xPnMBwpCDmV0BO4JfbVIg07acaWU+9sMOl/mmoKC4juXDmR2mm+XDPDPNHJxwsMF8UEgxbJY3y51CmMS6Q1HOcuRsFf3FgRHLk7ZgvqPAYZysRyxz/vQs3cdyZzisZ8xLFNDjMP386pr1jG4YZhwoUXgwb6zXccaSdZNCgvnjcg+uG2Te9sI8cKAX8uKzqqxPkEXd7U3P++L5FSty4JCwTQX3YYt/A7Et8JN5ZH4ZJ39hi3VjHLpjGml3lhnrD8si2of5/PM///Pdd+5GW/OTYVFs0QbMH8UZ7U1xSbdsa6xntCvDZZhMC8sh2p3hsqyZVsKypR/WWc720ab0x/bBcqFNKUjphm2I7mNdou1jHGz3jJ/fUjD9rEPRJnTH8Fh+vL8w/yTmbdea/Cgin6g703Ncm1q2QreN8ljD9sI6G8+t29hA28j8ByQWbvzEZt77Ce6TZ2yAMkrQNipI36VLF5Gf0x5vFOTMFwdktANtwG+NaKdYHqxztAttxTzRD++BvMZ2xbJk/ae9WW5sZ6wjLAPWR7Z15o+24oCC91QKWJYz/VDQMlzame2NdXocpoPpoZ1pW9ZdpoH1nLZjXBxYxx/xiAJ4ZEMh3owEjXTYowrxJgw7z6xl3a2nlve6Vl2A0KpS8EGwvOwmxbVgWdNv7BmEb21uyZIqxAuf3GVwwZHfBH/1q1+5QOUDNbzB7r95skPk1/y//OUvvfPh09wUJfErLLrnjZc35v1+I5w5oDjiTZ+fvIHzJsubMf1S0ETYsVD48IbNMCkIDwO/dNy1hGcwM2utQ8O+8NmX2uJZaNe9ApbOxq3HdHHJAPNGwcBOmulgh8SNaWZzZodMd+zA2GFTAPF87DDoj/mkUKBNKI4ZDqE7XmPHw0/6pbjbPzt6ICjbQdaxrL5mebdp5Rl0nFMsW9ppr4Blx8bOmfmi+Ilp2A/TxLJkepl3umeHzU6Xn/GrfpYHj5lPlinrD+sHO3iGHW3AT24Mi50+w2HHzs46xkUb8hr3o53pjvVhvB7RPYUAbUXh8zIRTpgO1i+mlXWI/phWuo9frxPGFd3xPK8zXfsJbSQQZmDRpvK2ZRBJ3eaW1abnLJnBoNAFrLsabgdDocLyYF6j6HsZTDvtzfJgvimuWPdoG6aXedkvTuiHZcK2w/zRrmxfLBv6jeVC29D2rN90H9vvuI32w/gZJus8xVMUauPlGmEcjJvuudEv42BaWH+Y9/G00yYU3LQF21Js7yMnY/nkfc1/rreDAt+xAQaoWbtufdzj8rzv77wulmsYp2Iwxa08gyaB8hkgDAY4DIp1hTZgHWBamR62ZdqA6dx/H2OemM5YHvTPdNItbUC/43liu4ttKbqNZUf7Mwz6o3/6YxpYL2jH+M3Dy4i2Zbgx7bx/sJ5TQHPj8XhahHgbJGDFWzKsPhSxvIETf9L5APEacbf0w5kjuKXAiYoNn3wal1+B/c3f/I2P2vlCfgopMn4D5A14XMDSHW/YFALc6JY33sPcNNkU4hY7vaO52VK+xsyF8Dh/tvsb9X6Cs9UQmrgSY4w+XgbzRpi+o0njN4lxjAuAQ+F1gX6RN6Yt1ocDc3N4KF5jmb4uLFf6jZ+vItaDcRscla2PouxYN8iub6TV7e12H9YctCnWJx4Hd28W16uINmI+Ypl8m31f5mc/0f7ksHaK4ZKDRNY443EwHdw/TDzwOdwI3Uc/w3MMM9Z/3uNQZ/2TD9UN2/nut1MUr+SAaF+nvse8xM9vs1vMf8z3YeI4LCyHGO63pUOIN+Xoaqz4QcKukVu4MfNrYs5QcP/bbliseriR+wxRmHl18oGvi/3tb35rf/d3f+cdEV+dxRnA17kR8mbM0T4/D+uH7uiecb5OXK+Li1ffQb4LqQ0KFfRjQbwelpi+40ojoS3eqFNjx8zZdJathfoQ6snbw7J5ozS9JrRrrAsxzqOy9bGUHYIasA1yIBg3P02rQ6T40dHDPLxumRzGD93w+uvYPYbL7TCMxxHFFhkXdgdudBdc7+4hROwyDOSLbdvvbVXc5qax8d3XU7jEdf48zzTCbczaAQX0OrZl+sfzFPNzENHt65bfYRgP99vSIcSbcrS1Vvxg8fuv36jGbsqvYtftcANZr+cPTPz1X/+1/dVf/Sf/GoprV7m28LBf1ZPxjuak3DzRtQz3RlDU5WiCQdy9nsBjvk5qxzDq0pm+oxGukViux8l4HON2Pqp4j77soqBifaK9eVuP4R+frQ4qi9fJWwxjfDsKDhPW+PXXj/cVeeQlvzzcoT0wqMsH/JWr8TzjMrewBuSVjPwcvMVZz8MQ/Rw1xxWuEC9DAla8FfFezc3Z3TkE426x3+117X/9/d/b3/+f/20r167ZX/7lX7qAjWuxDoKjfK5T5fq1OOI/epHwNjAdSI//Gz+Oe3u3yPj+JLGbj+FOPPZzb8m7KNeD4jg59Wm/PUPNiufGz4+ujc4eFUdRFjGM8e1toYA6TFjj13nfiOIr+j14wz1m16ZxGzIe5b5LBfjde3/CSb+OP2PuXsbe+F++vc5sZ/Rz1BxXuEK8DK2BFScGrvfiU8F8eIMP9ex/48B+YofDh23iQ0t8EEM3UPEyojiJn0IIISYXCVhx4jiswHhZ1ZUwEQcR69Vh65cQQoiTiwSsEOIHgQSsEEJ8f9AaWCGEEEIIMVFIwAohhBBCiIlCAlYIIYQQQkwUWgN7XESrDpfaDfyETC3Euyeud2X7477aoXiXqM5NBon/ezvCPSaW9tuGJl6NBOxxsN+iqMUUsDK0EEIIcfKIYvPNRWzo4Qf7/EvEHh8SsEcMjekVdtyqOMFDGVoIIYQ4mbDvfqXgPGwnLtX6TpCAPU6iZVWZhRBCiMnm29SS+vp3igTsUbNPtNK8vsv3TsrUQgghxMnlIBHq3ferFCocDN8vnbPfx/6rXIu3RwL2qNkVsNzJseGz3w2fuxeFEEIIcaL41h844fWXuUHfPmB/j2tJwaxQDvv+oqdvC1O8KRKwxwYq8wDCtdswa26E/UF/eE0IIYQQJ49XCc4DrnHCilKqVMInxGt1wSydhX5NcbHgU1eSsUePBOwRE42ZUMDmTctXb9nX//O/WaW9bqV+Z3hVCCGEECeJ/W8QOCze70PEZknJOuV5u/yTf2lTH38K7TqF80UJ2GNCAvaIGQlY7PW3LX/wW7v7X/+zzTSfWJq1hleFEEIIcbJAv/0GSjP0+wPrFsrWKC7YlU//rZV/9hdmxXmEp2UEx4UE7BGzR8BmWxCw/9ce/+0vbW7nkVX6ErBCCCHEyYTrWF+fgT/zAgGbVKxeWrLlT//CCv/8P5hhXwL2+NBPyQohhBBCiIlCAvYdMJriDqM0bdq0adOmTdtJ28QkoSUER0w05u4Sgvv/YKu7Swiaw6tCCCGEOGl865u0XoKWEHw3aAZWCCHEO+BlcyX7zwUhsPf8y/wJIX7oSMAK8RIG76gj/WaInLvnaP3tR+z7U//NE4FvnjrA4St4E9eH8RNTcrDbw4RyeF4/tMOX16vzMSK6G3f77X5fffUwvCyEb493hP/y0HAbJxyGUGJ4o6NXfY4TWuRhoLuXbS9j/PxBbl6ftwsppvd40ibE9wctIThiojEPWkLwJl9PiHdLFK/8V0gKfL0fYIkOf2llEDrp0HRYoKPONf584N7udm+he90AA4bBYz/Efo7wC6MxZXTH0F7F+LsLx2OKvuK5JIdLhJ/7lVGYvoc/QXjsfwo3vIQ7uo9pHYGc+uH+n00M7veCc7QZHObRhshzoYg4kDYPYyyQEMLoxDfDR36CI+7tczC8sHty/zEZ3x8rw7G/4e6I0HfLNcDjnOXlXw/uuva/I3jMjVdHpRncHgAuekrc8VicQ8OwDKMNg90Jc09X8avKWIbBAd0F+8LFuIHdD4/3p41HTEV0O/IzckmGrlmGqFd76vyeAEcHIxdhL4QwCj/Aa/vP8Wx0vT+UkevRlcBel7Qn/3EfrRkfoVzjfizL6Cv4+SZwgTII7SUy7ieC6wx3eG4wDD/Ac8wRw4ALJCAp+NvDxwg53heiOIHsWUJQXrLln2sJwbtgvEUJ8YMm3GLY43DDf2x+WyqULeeBd1ijbjThC6p5cyqUrG9F6ydwV0itMyhaD/s9C1tmJXxiS0qWwW2viPPF1HoIN+M+PxEWrzGMDGFkhYp/5nA3gBtIacboMQfCDTOkh5+vhv77iL/HtCGtTE/GeBFnznyg8wzhkRBmjM0/xw98Y/75CT/DLfoOfr+5ORA6faQlR54y5K1fgh2YFqSJ6aDvXRhmQpHI8HmCYYw2DxPXkuE2gtdiSNHt+PH+a8PN4wnnuLlLZDK6yPmJ8uYnxavnfxd3/Wp2w/8mMY4+hBFFjIvTXbc8j+soK25Q/J4ujx5ugs/9xHP4izR7umHfnPt+JYS9xx8OQq5DOpNd24/cjrt3lxwQeT1CnWWdxhbqL9pCEeml/YaePBTGMdxCfMRD8i385cXRubC9DJzfzf/Q3TDcuIU6Otz8Y+gWx6zzOdPv9hmlMzgfhhdKwzf/h/jCP55hm0K7h2uvG8OzMQ7fdtP3zTA9OhxyPBLrlSfYHeMkPqOddjchxC6agT1iojH9ZqUZ2AkklGDozCAcIKy6g7IVoVPRTaPBcOOVIAgoAHEGvtgBQQhCmLnYgAc0Lit67xSEAP+x6wqdHSLgf1wvYSvATd6HjCtD1FFQ4iKTkOSQv4iz1IfszHtWYOTDDjCECVfDXo5/yaijHMYD+hTThaqLjRyn+oiPVwoIu4BwywnCH0BaIi08H/4yTIYTQgt7OIPO1vc8jBzHIS6mg76ia4qC3bTQJvBH8ZyXKhDzVRdjOfJFScV8lbHPrQCLMo8h3MBuuB7HKBYS4gjpHZ0LjEIIjJ+Prkd+wtw0Gynzj9Lzi36LpGiE7VxooEyK/a6VCshj8IAthjJOODdKL47daTgexY+YGS4GGLw+gF1ZH1gWrFWsDxzQFMsVt3m/2/I6Qf9uY08EN4bL2Fg/eCaI1T5O5xgYcQDDcEusR2EY4dc9JSFJjJxHOBXCjNdRWL5HPF4eFTkQYr2qoTwp5qIL1iukH/Gkgzbi69KSIYlMkzsbxsOo/ELIi8fljK6Hc6OweSX6Ibwysu1egc6TIQjU1aETwgFpH+VZTKvW63WRVrT0od2DG4ZInyGcUdp4jDDRiGjPAeqy2z9rWzGhlA2pG2f8yEP1YOiKO7RHEML06e0Rm7M3mFAk4kSih7i+GyRgj5hoTL9tSsBOEPubAWQAi7BYs/TMJSsuLVrr1u+tjM6YIsJnbcpVSy+/Z/1O3wbttqUr75lVZ9Cx8/evUdBwB4WGT3RI7Sb7Klyv4bOCy+zSeQ1b1rX8xQurP3tm81evmU3PMgG4hgS0W9Z98ti6a4+t2Guio+0gZPjh7Bid+I2RYpmfPAob9z0N7CDx2YV4rZ2/boWVG7g0FMAQzIPNTWs9W7Ws8cLKGYURwgY+4wx/7JwZHkNj5UUXbxlnmrFfopBzsRn8UNQHQvz0GdIT0spOuluYspmr71vh7CXc3GEnhOE9c69t/aePrHf/axc+uBA6euBh0BbeSeBkFCnc9TNBnIS8kqFHh2eCq2CXSNwPKQxeQjoJZF4QKLQt44HzdGHBKhcvW+fJqvXXnmBA0YU/zobGGIDbaxwehTM+m8zYhlFHd5RMnLUszp2y6vyctdefW97YdkHF1PHnKbulGVv4yU+tv75mjbtfQhhChHo57mUYk//1ARUSn3DWdm7RKpeuWe/5E8uePvTBCu3G1Lpr98i0hTO0/TCZgBdZx7g3vI6/kFo2df6qDVCeVpzCRgFOj0gXbdPdsezuF5atP7EEdY2h0J6BGM5oP+AJAaPYvQw87hC/u45GdCHI9A5tgboxCoMMfbmAHfrBKbZfDgpmPvwR2l/P6l9+jrZN8chw6IcRIiYe4zMMBrgxDNR9DGi6EO/TaP82VbPs6y9QhRtWwKAm+Mc2tGWA+x4q4uZnbLNwgfJJly+jtArWXFu1Atp5bDORmF1xMpGA/W6IdxMhhHcvoaPhDYdr4ijRSgvLZhffs0GKjgrn2fX7rFipaoNzV6x06qL1+uiI1tfNIBBsY8OSxfNm5SnLnz0N5148M1t/YbaGbbNuyakL6JTQ4T99bgbhmm9vWwfuk7OXoXcRvp/Hhk6y8uN/blNXbnp8jDf0Zuy0+ZdNGJt/rYwOFp1mFB8xN9woxmz2lCWnL5jVIabXt8xaEMPnr9j0z/6VpRdvWr885zOkwR+/bubscmk4a4v9AWcCU4j2GzZ/4yc2qC3AFmXYqYx4C9bLOafHr43DRhuGTh9pQ6IGvnwB4v30JUuQlv4T5O8pbLP6yG2Q1OthLaV/LR0EZJ6k8FdGUAgPPb9rI+Q1Q16ZVs4j9hE3hTXFGoVJj2nheey7DOCyBQwiMMxgEPjMsVFQMx7kl3Eh3d2cn5xlDUs/8tmzNvvxn2HwctHaSEdO4ZzBJ4UJ/AwwUOEsPP36hutcY5xwTS/LguWC6znC6hvywbzQrjTwsFzcPsxnGQOf8xi8LJzDmIfn4W5ogz6EVgd+bXrJBtVZlAnDC3kLYTEu2pdmxnlsrCespxSVHGK4doNQS/o46zaAMIY/1m8ukWF8rO+FIkUv/DN8LmdhvnE9oZ3okRvwtaO0d3MHdXrN636Oepssod73UAefo55jUNbHwG7ACsm8DMuJ9dRDYRvCuT7qBcU2j1l/XZLCD/MWlk2E/NIf/mCD8MY1lh3T5kt3mA9co02YTuaBM+Zh1hx1B21tgLrry4EYF8IrML4erNPFoBTu3T+uc8DAJT1uR4+PcSMMH7ihHGiXDKHQJkhHv9uzrI+c0Q3bC90hLh/ksj7DTZDZcM9vaFimuMY6HOoj84J2sfKhZTNL/nOkcR6YsLnzaHRGCEGK/xEM98UR4jebvGODrVWM7n9nlV7dSgN0ILoLnXjY2cQuo4uOpXTqsiXzi9Z6eBcCinIAWgAdVVacsvTCNXSCZs2nj6yz/sTqEK/bza7Nnr1o3bVn9uyrf7L2i8fWqW9aa2vD6lubttXsW/Xseeut3rNnd7+03vozazZbEISzNoPzjdVVe/7wvjU3123jxYaVqzWrLC5Y88VTn52hNAkk0Gbs/EtWrM34V8z8Sh69taeeHW/YQz6KFYhqiNfpGXv+2e9s+/ljazx/ao2nT61YnbKpi1esvd2wrNX0zj9LZ6xfmTWrTVsPNsjgv1+uWZ7OWmnlIyvNn7NOo4G8o/NGD821unl1HnmYtz7dohPmJ4VImNWjsOBM4rTVLqxYodu3+7e+sPbGM+tsvbDO5qZlnKWGyzydsk6xZv3SlBkEW46BA/NIwiwuhAjSZ1PzZun0rohhGrMyjiu4BnvQ7QBhUQxQ2riwKUEo4BxFYYbwe9j6iCuZmrM+wqLIgRZB3Ng/fdlqVz+07k7HmhD7OYROb2sriDL8c/EFPxnSaNU5CBKkA355foDBRl6eQlox6GFaUbYUvBnECJcbU0IRClgKmmTmFOxyzTo7O9ZdX0OeKGqRb/jrV+asVZi2+YtXrd9s2s7GOvRgGWIT/hCGz6XSPezURVg5BzrIow+waAvkud3JrLXdtA7rGe2A671SDemaCzbmmmQoxhwC1wUWyjnnefjPihw4UfyhruWQkoiUD25Rl2YQb03U+Y2turUhrGempqxx/45tPLht2eYziLtuSE8BWwUDNNQnCkgffMA+OerLAOd9sEKb4ZNroq0KuzJer4dzNqBbRMg1whTDrCN92JyCnktS+ki7i3HU2W4SbN/HtS7KtgPxGm3p/iiOYfcuPrOdlrW3tnFMEcl6hToHm7h7Cle3L8oI5ejpoD1hZ3rgIKmOtt5roM2gHfhgBv4yphVpC2EEkct89dE++E0I8z1gHJ5fClsOuHCfuYh20Wlab2c7LGmAcqV4JSxncYIZFhDrMdv8zKX3Lbn4Ieoq6op3+irB40AC9pjw6ioBO0HEgtlbQBRv5dOXrLCwZI1HD9lzwwlnUiiEZqwC0ZH0MuutPbRSl2WM6xAD0xBpg51N6z+/a9W8ZZUB5/YgPCEQDB1X7fIVK0O89TaeWNrb8TWg7HBnzi6j41+3LgRvyt6rXLapxUUrp2VrP3tsRXRw/Jo/iGwICooopIUzqcnCovXqddQ7zgaN5ydBPlJLTy1bYX7Weve/sHJn26qDriVcD9npWnn5MsTLACIHnScE7cLNP7HqzR9ZCiFeXThr6bkrVpg9ZYU5CK1rHyMunKuh0+1nttPuWfXcRZv54E8svXTd0tPnLZ3H9dMXLIcgzrs7SAGXXeDmDnHhAhbiq/5kFXbhXCc7a4o5pBTioLbyoRWXr1n1zAWrXsbnxff8Ya/W9hbCKFhxYdnmb3xilZUPrIJ0l6fnDfoMg4kVq5y7arXlK1a5/B7CLVv1xscQ5jtoihRukI21RZu5csP6U4s+MEnPwj3ySPe1SzesAkHVgBgrL5xBfv7UCstXEf6s1dLUquWiTS0vWzfrWxc2K0D0zl//xGrXP7b04jWrLJzCNdgQY4gy0j599X2rLDEPsMmV67h+2toQkHl7BxItKBMXsBDgg6XzVkE62mtPrIN8JrNLNnP9R1a9hjzC9pXaKSsvnbV8e8N2UMazF1B/FpdQT7ZdMFfnlqyG8tpuD6yIvM1//KcQ5Ys2fe2mi0ZWu6Ur7/msZgHicBa2S5G2CkRTegl2Q3rbzZ71exDqGASkF2/Y7M0fe/1O587i+iXo3AWIqx0bZFzTigC5PAY54BCK5VKYWbCphXnLXjyxwfYzK/P+B9E+g3CqtDNteWUFIrwdlkS8PyzDU8j7wjlLUW7NPurqILW5j36K8E7bNMo+hZvquUtodhUM9No+WGK6atd/bGV8Vk6dswLrbneAMP8Z7LViNdS98nsfW3V5BWU+D9udt6kVlAfqCNtvG+FQgC5dv4mxzoxtbqLtzp22hQ8QJssS8ZUhrHsYuHB2fQp1o/beJ5aiLCtnllGzBtZEpZs9fxVpO29dDEz7GBAwvukbaDdIdxV1kYOl5g4GDhjcLH70M9Rd1IszqG9ISw11lzP2bV5HviunYWe0i8bGmq+xLng7Dy3YZ/PFyWV4u5WAfbeoVQixS7zRcFYk3nA414bOuTZjsxA50+jIpi7ftOkr2ND5F2fmIYzQjNDZlBIIR3xyfSGP+cBXERtFbSHHJzfO6+CYMXD9J6+nBcRAN4yyVLbSEjruZQjHc8u2cAEiY2HW+hAFSbcVZmXcN0Q0ZwvTaeukc5ZVFqxfW7JOedZnIf0NBsPmHaRSyAnTRMFY5hwyBGwKkZG16pZ1O1asQdwivLmVm2aXr1rr4UNr3vnKZ1iLyHs2PWf19XXrrL+wwcY6rt/zGWXOXlYhmPg1avPrr6z99JnZ6WWIanbgnHFjOphm/KMo5zYza/MQYXNXrtnM5RWbuUAhypnA1AaLZyAor0MoDaxx57bPDFff/9gGUwvWRf7mIBoHEJidB/ete/dr67chTtOqDSDiUoSXQcx07nxt21yygbRRsPaKNe9YcojffAmDhH4B+4gHwpKzd43bX1t7ddXs6orN41wdonz76VMzDCS6ENpbz55Yj2MXpK1fm7NeGfUBgjE5c8Za9+5Z86uvXIhOffgTiPwzlkEoFyCE+qgfjcePrf3gng0gfKYhWvjVfc5puSH8mjmp1FxgZx2oX9SBGQrPU2et/fC+bX/9Oa6XzebmWII+U5hAbA24DIOzvgXIYYhSw8ChD7HWK2EfZVg5DcGMQVfn8arlXG+8eNYHSXkF1y9chR3OWvPJYy+zAdI59/6PYN8p1L+zEIcfWQcir3n7K58VHqA+GgS2zy5yAIfkc7kH6y3X6lLE+sNH2BIMSliv2Qbo1iBsC1evWxs2bX/1tTW7fQj/D1CGp611/67tIH39mTlLIKRptzbKKqfIo5+thtVv3fJZzuTa+6gDi7DDKQjva9ZqZbZ9+y5E/5ol5YqLZVvEII1ph/Bs3L6Nulu06Y9+hLo9ZXXU5267jQHFe8jvkj/UaEvnPLy8iEHbZQxsMHCo331gjfsPIeb7NoDdUtimBHsy/ZtfoT4+WrVsirP1JYhstH/kowdxXUK9Yn3KWm3b+eqWtV68sBTlSKHappCBUC9du4Fw2p62TrtrFbSRMupthro1aDZ9/bsPjlHOexnVFyFEQAJWiG8QOg8XXOg3cgouCKTC/JIlED22eM5yiIHB4mkICwgndi7UsPhHLeudDfy4CB4EMcyvWyladh8kcbjPOHAeHn2tIDri4qlzVj1/2SrLF6w8P2/Zk0fWfHTHCt0GhAHdMzyIh6mZMAN16bqVTl+04tIFX5/Kc/41KIVNSMIYIS3cPK3c9zR5LqxfRn4gAvsQXGv3btnO07u2ff8rswZndvsQEhvWq7+wHFvj2QNr19dt9tQZF2D1z39njSe3sd2xzpOHnAiGVKbcHiUgxIKtWrPCEoQDxFJ/CYJvfsEMYbi0x+UuhPL2va+s9eS+NR7cRqdesjLEaDK9CDF1xUXj9v0vIKK/tJ3bf4Sofo5gEeH2hm0ivY3Hd5HG59a9d9eSsxA1tEd13lLE14MQ4Swn3XMN5/aj27bz7K6t3/vCBo8fQGxBSEGMtzYhxFvr1tt4ZDsbT62fQVxSZEI0JhDTtnwJ4d+xjVX4R77rd7+0UjpltSUIyQGMCyFTX31o9cd3bOshBO72ppXmIHh8nenQDjANl4GUKhUI28R6EO0pl4MsLKLMIaRWYctn9+z5138w6zTcj3+ljSEIHxak6OWxzy4nw3XKjBtG7N372jYQL/PhDyfheljviusonDrqFdO2/fSO5RDZhvrMZQU1COce3G/d/sIauMa0tzcxGAAUpL4+E5WHpcp1sMzJCBx5fQKs017JsNXr9hyDoe1nqy52ixikde4j7gdfwkZ3IKQfmbU7PtjxJRjM09pT1MEvrfX0vtUf3bVCsYw6AAEO+3Mqma8yy3odfwixAf9ePii3AerqFupu/ck9DDweQRhuox7dtU1svdW7SBe8Q/D7zDdswnXmYe0rUgb/PZRNu7Fp26sYIO2g3jt8QAe2z7uoC8+tjrRnsBGXVfjSilLFCmgHXJ7QeIj8wG7rd/5oGeojl+fwtWK0eX9nyzbvfm51tJ2dx8gz3HOZBmfGoWyRlCrMBrc4H1tNsCb/Du0qhHB4dxFC7HYQ4x0FhSUkF4Rbvg1B9dlvrf7Zb2zns19b/ff/iOPfWY8PZ/HhGM64Dp8ypzj0XnLYBcWOaD/jLvwfPXba1kXnuPXH/2etP/zWWr//B2ujI0yam/6UNNMS3FMKopuvQNjVqtAyfCVQCeIH+/xqv1x0N07MDs6ELYgKzuJyTriIzryYVqwHMVCEuErSFCJ1G6KHLxFDJ43zg2bLEnTA/qohChAEU8LGUEq1aSjOnnXbTZ9546u/uO9vOWC0+MtYAzhDMbX2xNZgz8Y//dqav/+Ntb74zDoukiCPcL3faVqStSy1rr8+jH4oFIocMCCNHQjPMLvNB5OC/T1c+Ct0m5YOOv6kfv3pI1zPrbp81fK501adX7TOxgvLusgP4sph7wTlx1lpzk5TaBnEpD+MBetwtTNnEsPT6RSB+ODMGwY0XCrCr4e5XpEz7INuB86RDohzH4x0u0gLXyPVC3mgwCpx8QBtEMoPO9jChz+Ah61YLvvsJmcLOZtPm/cRDiJzhyNbooRhk/DAFsNlaXHQAHqZZa0GbBBsxLLcLXumjWs22y2vUymu5TjmzG+C9LEuUMhlSC/kGbLdt0Gn6+Iwh3c+eBTTHdPiR6OsDGEOh7WwWbdC1rEy8pLSBhiQ9CHwmWJ/0h/ilWl2wUvb49xgpwG7dq2cZG5fr38UxRCXHZTrVKVgp69c8tnc6ull66FcPDL663NFLvLdR93lEhbUiTLqUoJjBO559dlhbwvIBepqY/UeBmqbdvr8OTv13g2bubSC9jVlbYTXhCidRnxnLl6wpZsfWuXMRX+LAZfFMAw+/FZAufX6tGUXbQM268NmOyizKt/QQFEKpy2khXliO+F6deQJnnEBl5kutj/kgwNaHgohDoatVwgBQleLTpc9h/ce7H4p2ND55xB33bqlnU2rYKt2t3wdKUUWOysKudDhDAUGhEgMj58eJM+DcH64jIDnOduCT4+HnV57ywo7a1ZqYmu9sHJv29cThrk2uEuQKoiKPkRB584ta371B+s8vmfZs4fW/PoP1r79uc/8hHfW+lyWx03Zy3WzYQEBf3AhNT79np676EKiu7EG0QXh2UGepqa9c6a04wNJSRUbvIc0M7EIjTNFDA8ikGt1S5Waiyk+Hc4ZRb48N9rA7YCPoqt77CCfFBWDDgRjjw/BQEhCSNHeOPBOPuSXdqL9OT8ZZtx4LZ3mgz8Q4JxlRqfviaMQcsHHL+kpOiGImluWPX3saxKnz160HuzW4RpDxgH3BYrNcgp7cFYUYmQaYhxx8FVeLlqZV7cOLM+kE5ynSKHoqcFO9Msn1/k1tueZophpZn6YFgpcDwfh0Q4hEBa8W8brjZcTvcMnwmb5VpA2ClOGXSxDMKMM3D/CRAK8DPxNBYXU+NBagjIIdQ0BetkHO7hNuXl6QhoonEK6EAxOeV55TPtAZJUQVnVqFjZOIWhnrDg1hzKGrb0is40gmDF46KeYF09FhHssvx6ENNIDu+cQ4wmEfoH1hUOHBHWMAwIIW6bV0wjbhneiMs1wy9dgIc1cgpOgrrRW79rWl3+09afPfVlEbeU6Bh4Qip43il3mjRvXeXMQhM2PQ7nQ3W45IEzWh/72C6t/+QfbfHDfmu2epWcv+4w909N6dM82b/3RXiC+1qBoU+9/AnujrsDCbnPEyXyV2C5gO9YJfwtCrebtKTz8ibRnXDbEMmK9Rtyh8GFPpIZCFuf9F/k8XSP8wTu6EULsIgErxJDYZQz7FOzw1UIJOj92iF1KCWxc34d9dHhlbJwh8llHdrruF8LAO0iKjCC6QmAhdHZaLlThx895PLzCzpWzfbHDhWD1OMN6wtDh4bKLh4HPgBbRSRd7EJsQ1kWI3qS1acXOjhWzNtJFgcZOOm5IB8OoVG0KHXPt4k10+h/bzAc/tsrZ89Z9/NCSzacQzNtmjx5Y6dIVW7z6vk2fu+prfw2C0YUlZ7BanKUsI5xzVpldsMaL5z5LO4tOfWZ5xWYvrFh1+VKYxfR0h3yGvOOYAgviaAFupvlwz/DBqxRhUWRTDNAWQTbCD/JJe6XIUw7RPni6arXLl2368g2rnH8P+fjA0oXTPmtFYRbEC0UJ5B/S23jy2N/SMH3+ovWfPbEB39fJdOBfYW7RZihukQaufU2WL1jy8A5s2rAyxXwfQvLcBZtbOmNFf28twuXMGYSxIR2Vyyu2AP8zFxAG19/C/u0Xq4gbbvwxIaQF5eV2oDBxYUZb4B9UoL82FOcHEK1c31yGSOy1WtZ/8cKmzi0j3GtuoyW+v5eDCKab78xtbvsgo3bxms1fuGoVrlFNU8hBiDzUIZZVqIfMJ+OjDUPdKnCQxE/YtIC4aSt/9y7qXKnftvbaM9SDHZu7+YHN3vzE5t/7AOU8D/8hH2FwNgbS7WEwDq4D5wYhx0GFC2iv16yPnNHFoAL2t/VnVrl4yWZhu3lstfOXkL+K13U+wBTbTyh72NDDRp4wWCzNzMD9RStNz+FSqFt8XViYx2Se2V4zK8Ott13mk3XJw0L6WT8yCuph2jgARdWZvXDBqmfOIdkoZ/76A8JMsKXTs75GmzboZwinhwiLZbdveC8z7Ip2ONh47j9uMX1pBfVpxRZXblpxZtbaEL+l3g7CxEDP84c8uL1oF6YXZcS2ggGLtfjNA9oY0zmGt2W2GyHELnoLwTHhN3jc3PQWgkmChRM2dr3sprlmsFipoYPLLXv+0L+SZGdNF5wxKaFzS9o71t18HkQAOxl0bpXZWV920N967kKMofpcDURWXsL1qZolW+vWq28FsQMHSTm1CoThYGsNQm07dL7eOxOGEGFnxhRAOLg4wid/wQrCkmkJ4pVxjjo8zlYWIRrLcwtWgogtz8xBAE25qOLbDbqP78I/0uIiEZ1ouWK1xdOWQiyU0OFz7R7T1d8KSyZKldTSeYSH/Z0NpLexbVOLSzi36F9B83VcTE+29sisU3ebsfJzVreCTr0Au1WwpfNIz8KilWZnkMieZbAH37jApQCDzTU/R7uk09M2eP7EsmYD4m3HUoi5FOkrzc6hnQ2sW0f7ogCE6MzgL4GIZ1n4q7uSstWWlm1QLljri9+ZtWHbYtHKZymyYQsIhnRhHgJ6FsLxmTVvf46BwQ5ECUQeSi9F+tJiwQq0LQQIyxWZthxpLaVVq546Y2Xkg8Kwce+W14VKCRofYqbHZRHISxl5pxDi7GzvxWOEQ3FLKEkhvSpTyM+S9VsNy7Ze+NfraaXi52ijAY5LiH+wjrLCdYroFGXk1zmLjGsJ4umiLDmzPTVTsfzJA1+KwXi4LCFFmWWocwlEdppCKG9tYOATyoYz5oVSYj2IrYxpbEFsFiDeEEery+UbBdipbZ3nj2DjHa8TrJGsYaGdoHbDbaVctD7sP0A+2IKoDCs1tJ9uyzoQePwhEIqzXrtraW3KKkuoY/hMuP4TgxP+YAf9Tk8jPchnr7GJQRyEIssL4fQ2XkB7t6wKMVk5fcaqS6hvuM5X3PU21+GPYW17vWMbKKGelGCADOWaZ10rl0oosxQ23IA72gntEPE119esygEB07NwCjZFHUY+Os9XIXa7Vp2bRzmftsoC7I3RY/v+17Af/KS4U2QYcCDdfJgwQV1M0bZShoN2xvJor97xQeX0NOo44srXnyJtENcYrKTYOvVtF8ZTV65YCXXLf7QEYpf3jcCoHe+9D4gTw7BY9BaCdwv6Pg3rjpJoTBcP+iWuiSJ+ux1mxzgvgkOIUb5TM0FHYxCV4atlukb3DHHLd1jSU5+iCB0pWxPfNZpXZ8x/fQhigTM1LjIRAV831IUwKFA8djq+Do7ikw/h8Elmij++2sq6bbjPEHYQfvFXezyB3PNjv+TigS9Gd1FN4cqZpt2aGODX0OG9mXwrAP1zwx90zv71PUQchQInCflAC9+7ScFL/OtyzjYxncgP14AmyHeBYrvbheDhelJIvSm+I7MKfYsw+3CP5BQgkEro4CmS+M7L8K7NaX8nKO3H/A3YmVMQIc8DiBOuJfS8IFyKID5Bn1SnXLgSrvssVCBoU641hUiFO6axCJHJMsh7jC/zB6l6ReR35oyd+unPLYNwaHz+j4ir4w/d1D75F8jKjDXu/AEipOH2SDgD1m34DBklWs4nwpEvtmfGA1Ojl4J9aTemEXVjgLT5Q3iwY87ZReYH9abEuuNlzIEIgDv3A0EfZiNZRgnKJvU0Vt//sS8L4RKQnIME1IUB6wMGPP1Wx6ANjb9YxtlaVtYBlyxw/TEYwHZFCCu+S5e2K1VhM6Ql52w87M4n2/mOU76XlcKO9YzvLi2i3FmH+PBeAhHbw0DEl5ikM553PtnPH3FYunnT5qxrW7d+Z8XGmr+9gmn3uLH5e2hhU6bVkD7WJ0pzPpDF9wwzEq6LriQYAOBclsAt35zAMmQYyC8HY/66MwzcKN4p0rn2l3WAAzDmlT88wHQXUM8GXA/Nr91hX/5iXZ71kW+EyYFfZ9PTxvIplGBpXke+ucYUStgF46Cf+2CJv57F9cacbeWaV9ZRtxnqIsvcB4NcEsOHDFGmjJ9rWRExwsPAhssGIPo5p0p78YHGhPZF+EwXf5GM7bJc42ALftAm2Hy9TDA44/toCzOnbOaTP7HOrc8se3bfyhCwXC4RumcfIvjfQPwUJwVfWoMS8l/iKi/Z8s/1S1zvAgnYIyYakzccCdjJwteYodhYRH4/wn0n5+PBfOCEnZh3UbiWUyLAFTs5eqQ3dpruHgfoJL2DQtPi2scQHj+Dezpxf1CLfCjFo4UH/+UexMeO3F2ww3WlCZ98stxDovzk3jAQXOc/v+aVi+eDm3GYN36R6mmmc/ih5GV4ni/GwbO4yCseNfJNpzznYtfDpfuQD37t6UHhnP8qEUOiM55iMtCB+1fLSCPDdtwPBDeC8gd2PH847R88OYxriMdNPzwHd/5wC0LgS+3DAzQ8zRAZL8QB3OUcMMAPf92oyh9vuP6RP7RT/6ffWGH7KeLCQAPCqfqjn1sJYmXrjxC17Y1QVkgv1zH6g0uIkmmMZckYeNJt5fHg2NPGj6LHSzEebMl/cVBBr/hD2/sBbOgJDuUEuWu90qyVr1y36nTVWnduWV7fdIHrdZLize3Isgt5ZXi0qh/RhoiX59w500x3PD+0Kd2yftFa0b//mhbC9eQhH/4jAfifQGjxnbqcve43OzaYWbD00mXrPbxtnfu3rMzlFahN3jaG+F6I3MP28HGWu6HMeR3/WTbMBxqB/7LZ0L4Mwb27Q9axga8Hpij11NMGwWjYeNVz5tdi3eUJd8erGCCEOsOHGXHIsuF5pIVuPF2I2ENCpBShFLWMgyknfIDTQ4NjtxLKmDZiGr1OI14My9w1ZOwwPoYY0sc27Wnz2Wq6D264nIHXeTfxV6dB/Feuvm/p4ilrfPmZJfX1sHSI4XNEuRti2EMkvi9OEKgP/EcB24CAPScB+06QgD1iojH9hrNPwPKF9iMXYlIYL7HRbSjuxav8DJ2Ln/HL2MP//beueJ0d4Tihc9oNAYw72B/K6xOEwlg4Hjz/YIungyPwzfjCmVGaQnrH00hwLnodhr8/pOAjuIu+3c0B7sked0NGLvk5FCMUsexMIL4oYGuf/Bm03cA6Dx9a1tgISwMgDPjgUArRUIZIbz382qyzTTnhEY3sT15dnrvm8h1eHPrF8VBWvYShm+EnJQ1nGAtp1WcEsxZ/LIBLDNglIoxh0JEoZEk8HWIaP4r7I4/BXtFOe9l1DcHE2fXK2ctmF1eMv4hlWWbZs6fWXr1rSXvL32dM6fYyxlMwjp/HydHgJKZ46DJ68MsvrwPjjPwNw4vB4nwMOWx7Q9p1tuf83vhGR+N7wA+GZ1ysht1dYuAoH2d4PLI3zyPMXX8UtFzdm1iZ63lx3OOSjuESII6jQjmP/LPuipNIFLCp1SFaz30KAfszCFiIWZbzWKGLI0QC9ogZ3WqwJwH7AyTeqFTO75ZC0DL+KrPc+nlihXLVeuhQ+E7XUiH3NcVcWuASjl9586t7dCx8EMfXL3+nZRbiDrN0URy+606Pgo1f15dgt4r/whufpPefj+3zocW28U0CLxPA4rDAxj4Fzl3OsMKaMGchzgrzlRCoyOPfQowjAXtC4aAZZeYCtjgUsJyBjQKWbVlFd+TEpiSEOBLY8aiDf9eEiTj0EAMK2YKVoBIoWIu9pqV524pch+tP3kMg8Ot2PumOa3x6nE+sn4Qy49fFvaw3/Nr4u8FXBXBpC0R9qdewUnfT0l7dynl4767E6xGC6sqlC1y7zUEL3yNN+x4kXoUQe5GAFUJ8D2DnT+EXvnb3L/RyvkU194fTihQHVLmcKcE/uoNuCOcP+Dr8XcMfLyiXwo8YfDfwK2oI/2Lib3RIk76/NSBN+PPDXLF5Muz0vQHVkLN2fT6EBnuHmVmJ14lkvNg00/rOkIAVQnwPYA8CgeUClY/W4CiBkB2K1l0X/AqWSsHVAqXuSRFl7PX4dTJTGfa/K/xF+pwR9FlBpIcz1m499cxHAcvYt1BLfRbWf/Fvd+nIwez61XbittBGvuvW+8NCAlYIMfnEHgMdia8TpHjloV8oDMVs7GKicA1HYj/BmLQO98IWrCmOGB9cjTaK2IM32X8SYDGppN4NeojriInG9Bt+tu0PcT3iQ1zNR1bt6yEuIY4LPpwV1w/yVWU8EzYeB8HKJ/t9UtbboR+dzBaJZDM/755oj/CXR3GWOgwGRjYVrwtt+uraNvZmsm/g9ZuDM3HicBmFe4y/B7a4aMuf/vvhQ1yLuMp5QpSbiu7IkYA9YqIxfWDdh4B98A92/29/ZbPNx1bN+RvpMrcQb8Kr7/+4yj7E9wehlfHA3zXKMxBh+IwC19shLrgoC55OGN+NfCX771DhnsWNKTqRxpogonX3W5l8W+/w3dUJ8Wp4x+EsOX/8m++Bvfjpv4OA/YVZSQL2OJGAPS5o1f6O5Q9/bV/+9/9i063nVhnwN66H14QQr82b9AG7zc0942jviZOJ+jshJgpKqR4E7E5pzlY+/ddW/rN/Y1acxxW2ZDXo40AC9jiIFs07Nqg/sO0vfm1FviidPw0qawvx5rxJJzCJbc7zqR5PiImA+pTv9U1KlhUqNnP1Qyte+AgCtjZyII4cCdijJlqT9ZVP72Y7Zl3+PjrEK38Hm8jiQrw+b9MHTFqb01pHISYHb6/YuF6pUDJLp8zK0zjFHyOOqE0fNRKwR85w/R0qa1hnx1lXfPrraLj5RSGEEEJ8HxgfcLqW5bpXitd4XuL1OJCAPWKCMUcmDdWWUjacUzUWQgghvs+wv5d4PW4kYI8NmjWadvi0s+8JIYQQ4nvFbnc/6vcdHqrjPxb0QwbHhmqsEEIIIcRxoBnYY2XfSEwIIYQQQrw1moE9VihcJV6FEEIIIY4SCVghhBBCCDFRSMAKIYQQQoiJQgJWCCGEEEJMFBKwQgghhBBiopCAFUIIIYQQE4UErBBCCCGEmCgkYIUQQgghxEQhASuEEEIIISYKCVghhBBCCDFRSMAKIYQQQoiJQgJWCCGEEEJMFBKwQgghhBBiopCAFUIIIYQQE4UErBBCCCGEmCgkYIUQQgghxEQhASuEEEIIISYKCVghhBBCCDFRSMAKIYQQQoiJQgJWCCGEEEJMFBKwQgghhBBiopCAFUIIIYQQE4UErBBCCCGEmCgkYIUQQgghxEQhASuEEEIIISYKCVghhBBCCDFRSMAKIYQQQoiJQgJWCCGEEEJMFBKwQgghhBBiopCAFUIIIYQQE4UErBBCCCGEmCgkYIUQQgghxEQhASuEEEIIISYKCVghhBBCCDFRSMAKIYQQQoiJQgJWCCGEEEJMFBKwQgghhBBiopCAFUIIIYQQE4UErBBCCCGEmCgkYIUQQgghxEQhASuEEEIIISYKCVghhBBCCDFRSMAKIYQQQoiJQgJWCCGEEEJMFBKwQgghhBBiopCAFUIIIYQQE4UErBBCCCGEmCgkYIUQQgghxEQhASuEEEIIISYKCVghhBBCCDFRSMAKIYQQQoiJQgJWCCGEEEJMFBKwQgghhBBiopCAFUIIIYQQE4UErBBCCCGEmCDM/j+HsmKBH7RRXAAAAABJRU5ErkJggg==;" vertex="1" parent="zq16Zen5vK-xhFtDwAlY-1">
                    <mxGeometry x="70" y="70" width="688" height="374" as="geometry"/>
                </mxCell>
            </root>
        </mxGraphModel>
    </diagram>
</mxfile>
